<svg xmlns="http://www.w3.org/2000/svg" xmlns:xlink="http://www.w3.org/1999/xlink" viewBox="0 0 1112.82 1520.53"><defs><style>.cls-1{fill:none;}.cls-2{isolation:isolate;}.cls-3{fill:url(#linear-gradient);}.cls-4{clip-path:url(#clip-path);}.cls-5{clip-path:url(#clip-path-2);}.cls-6{clip-path:url(#clip-path-3);}.cls-7{clip-path:url(#clip-path-4);}.cls-8{clip-path:url(#clip-path-5);}.cls-9{clip-path:url(#clip-path-6);}.cls-10{clip-path:url(#clip-path-7);}.cls-11{clip-path:url(#clip-path-8);}.cls-12{mix-blend-mode:overlay;}.cls-13{clip-path:url(#clip-path-9);}.cls-14{fill:#bbff2e;}.cls-15{fill:#00170d;}.cls-16{fill:#5e0073;}.cls-17{fill:#1d0073;opacity:0.24;}.cls-18{fill:#060026;}.cls-19{fill:#06003a;}.cls-20{fill:#dc5cff;}.cls-21{fill:#e9e6f1;opacity:0.42;}.cls-22{fill:#642265;}.cls-23{fill:#d5ff73;}.cls-24,.cls-30{mix-blend-mode:multiply;}.cls-24{opacity:0.23;}.cls-25{mix-blend-mode:hard-light;opacity:0.61;}.cls-26{fill:url(#linear-gradient-2);}.cls-27{fill:url(#linear-gradient-3);}.cls-28{fill:url(#linear-gradient-4);}.cls-29{fill:url(#linear-gradient-5);}.cls-30{opacity:0.35;}.cls-31{fill:url(#linear-gradient-6);}.cls-32{fill:url(#linear-gradient-7);}</style><linearGradient id="linear-gradient" x1="558.19" y1="1476.37" x2="558.19" y2="31.18" gradientUnits="userSpaceOnUse"><stop offset="0" stop-color="#fff"/><stop offset="0.27" stop-color="#c6abce"/><stop offset="0.54" stop-color="#9462a3"/><stop offset="0.75" stop-color="#702d84"/><stop offset="0.91" stop-color="#5a0c71"/><stop offset="1" stop-color="#52006a"/></linearGradient><clipPath id="clip-path"><polygon class="cls-1" points="58.79 201.73 58.79 57.91 5.33 4.45 5.33 201.73 58.79 201.73"/></clipPath><clipPath id="clip-path-2"><polygon class="cls-1" points="202.6 57.91 58.79 57.91 5.33 4.45 202.6 4.45 202.6 57.91"/></clipPath><clipPath id="clip-path-3"><polygon class="cls-1" points="913.78 57.91 1057.6 57.91 1111.06 4.45 913.78 4.45 913.78 57.91"/></clipPath><clipPath id="clip-path-4"><polygon class="cls-1" points="1057.6 201.73 1057.6 57.91 1111.06 4.45 1111.06 201.73 1057.6 201.73"/></clipPath><clipPath id="clip-path-5"><polygon class="cls-1" points="1057.6 1305.83 1057.6 1449.64 1111.06 1503.1 1111.06 1305.83 1057.6 1305.83"/></clipPath><clipPath id="clip-path-6"><polygon class="cls-1" points="913.78 1449.64 1057.6 1449.64 1111.06 1503.1 913.78 1503.1 913.78 1449.64"/></clipPath><clipPath id="clip-path-7"><polygon class="cls-1" points="202.6 1449.64 58.79 1449.64 5.33 1503.1 202.6 1503.1 202.6 1449.64"/></clipPath><clipPath id="clip-path-8"><polygon class="cls-1" points="58.79 1305.83 58.79 1449.64 5.33 1503.1 5.33 1305.83 58.79 1305.83"/></clipPath><clipPath id="clip-path-9"><rect class="cls-1" x="51.39" y="57.74" width="1013.59" height="1392.07"/></clipPath><linearGradient id="linear-gradient-2" x1="363.77" y1="524.21" x2="509.95" y2="608.61" gradientUnits="userSpaceOnUse"><stop offset="0" stop-color="#f4ffe9"/><stop offset="0.09" stop-color="#f0f7e6"/><stop offset="0.22" stop-color="#e4e2dd"/><stop offset="0.38" stop-color="#d1bfce"/><stop offset="0.56" stop-color="#b68eba"/><stop offset="0.77" stop-color="#9450a0"/><stop offset="0.99" stop-color="#6c0581"/><stop offset="1" stop-color="#69007f"/></linearGradient><linearGradient id="linear-gradient-3" x1="331.74" y1="579.69" x2="476.61" y2="663.33" xlink:href="#linear-gradient-2"/><linearGradient id="linear-gradient-4" x1="462.48" y1="579.91" x2="510.51" y2="607.64" xlink:href="#linear-gradient-2"/><linearGradient id="linear-gradient-5" x1="372.27" y1="509.48" x2="472.74" y2="567.49" xlink:href="#linear-gradient-2"/><linearGradient id="linear-gradient-6" x1="410.99" y1="585.15" x2="455.59" y2="585.15" gradientTransform="translate(-35.47 27.73) rotate(-3.51)" gradientUnits="userSpaceOnUse"><stop offset="0.06" stop-color="#00aa1e"/><stop offset="1" stop-color="#3a006a"/></linearGradient><linearGradient id="linear-gradient-7" x1="443.6" y1="626.17" x2="454.3" y2="626.17" xlink:href="#linear-gradient-6"/></defs><g class="cls-2"><g id="Frame"><rect class="cls-3" x="32.06" y="31.18" width="1052.27" height="1445.19"/><path d="M52.64,1239.83c2.73-1.7,6.15.43,6.15,3.83v50.69c0,3.4-3.42,5.53-6.15,3.83l-16.7-10.41-1.55,3.14L52.15,1302a4.45,4.45,0,0,1,2.05,3.83v0H45.64l0,0-14.27-8.89-4.4,8.91H19.87L26,1293.52l-14.33-8.93v21.24H5.33v-25.37c0-3.4,3.41-5.53,6.14-3.83l17.46,10.88,1.55-3.14L12,1272.83a4.59,4.59,0,0,1,0-7.65l20.34-12.67Zm-19.2,38.53,13.35-27-11.34,7.07-17,10.61Zm19-9.35v-14.72l-13.57,27.48,13.57,8.45Z"/><path d="M52.64,1166.24c2.73-1.7,6.15.42,6.15,3.82v50.7c0,3.4-3.42,5.52-6.15,3.82l-16.7-10.4-1.55,3.13,17.76,11.07a4.6,4.6,0,0,1,0,7.66l-20.34,12.67-20.34,12.67c-2.73,1.7-6.14-.42-6.14-3.83v-50.69c0-3.4,3.41-5.52,6.14-3.82l17.46,10.87,1.55-3.14L12,1199.24a4.6,4.6,0,0,1,0-7.66l20.34-12.67Zm-19.2,38.53,13.35-27-11.34,7.06-17,10.61Zm-21.81,27.44v16.71l14.33-29L11.63,1211Zm19.79-8.89L18.74,1249l9.92-6.17,17-10.61Zm21.06-27.91v-14.72l-13.57,27.48,13.57,8.45Z"/><path d="M52.64,1092.64c2.73-1.7,6.15.43,6.15,3.83v50.69c0,3.4-3.42,5.53-6.15,3.83l-16.7-10.41-1.55,3.14,17.76,11.06a4.6,4.6,0,0,1,0,7.66l-20.34,12.67-20.34,12.67c-2.73,1.7-6.14-.42-6.14-3.82v-50.69c0-3.41,3.41-5.53,6.14-3.83l17.46,10.87,1.55-3.13L12,1125.64a4.59,4.59,0,0,1,0-7.65l20.34-12.68Zm-19.2,38.53,13.35-27-11.34,7.07-17,10.6Zm-21.81,27.44v16.71l14.33-29-14.33-8.92Zm19.79-8.88L18.74,1175.4l9.92-6.18,17-10.61Zm21.06-27.92V1107.1l-13.57,27.47L52.48,1143Z"/><path d="M52.64,1019c2.73-1.7,6.15.43,6.15,3.83v50.69c0,3.4-3.42,5.53-6.15,3.83L35.94,1067l-1.55,3.14,17.76,11.07a4.59,4.59,0,0,1,0,7.65l-20.34,12.67-20.34,12.68c-2.73,1.7-6.14-.43-6.14-3.83v-50.69c0-3.4,3.41-5.53,6.14-3.83l17.46,10.88,1.55-3.14L12,1052a4.59,4.59,0,0,1,0-7.65l20.34-12.67Zm-19.2,38.53,13.35-27-11.34,7.07-17,10.61ZM11.63,1085v16.71l14.33-29-14.33-8.93Zm19.79-8.89L18.74,1101.8l9.92-6.18,17-10.6Zm21.06-27.91V1033.5L38.91,1061l13.57,8.45Z"/><path d="M52.64,945.45c2.73-1.7,6.15.42,6.15,3.82V1000c0,3.4-3.42,5.52-6.15,3.82l-16.7-10.4-1.55,3.13,17.76,11.07a4.6,4.6,0,0,1,0,7.66l-20.34,12.67-20.34,12.67c-2.73,1.7-6.14-.42-6.14-3.83V986.07c0-3.4,3.41-5.52,6.14-3.82l17.46,10.87L30.48,990,12,978.45a4.6,4.6,0,0,1,0-7.66L32.3,958.12ZM33.44,984l13.35-27L35.45,964l-17,10.61Zm-21.81,27.44v16.71l14.33-29L11.63,990.2Zm19.79-8.89L18.74,1028.2l9.92-6.17,17-10.61Zm21.06-27.91V959.9L38.91,987.38l13.57,8.45Z"/><path d="M45.69,937.82l-17,10.61-9.92,6.18,8.31-16.81H19.9l-8.27,16.73V937.8H5.33v25.37c0,3.4,3.41,5.53,6.14,3.82l20.34-12.67,20.34-12.67a4.45,4.45,0,0,0,2.05-3.83v0H45.64Z"/><path d="M52.64,871.8c2.73-1.7,6.15.42,6.15,3.83v50.69c0,3.4-3.42,5.53-6.15,3.82l-16.7-10.4-1.55,3.14,17.76,11.06a4.45,4.45,0,0,1,2.05,3.83v0H45.64l0,0-14.27-8.89L27,937.8H19.87L26,925.48l-14.33-8.92V937.8H5.33V912.42c0-3.4,3.41-5.52,6.14-3.82l17.46,10.87,1.55-3.13L12,904.8a4.59,4.59,0,0,1,0-7.65L32.3,884.47Zm-19.2,38.53,13.35-27-11.34,7.07-17,10.6Zm19-9.36V886.26L38.91,913.73l13.57,8.46Z"/><path d="M52.64,798.2c2.73-1.7,6.15.43,6.15,3.83v50.69c0,3.4-3.42,5.53-6.15,3.83l-16.7-10.41-1.55,3.14,17.76,11.07a4.59,4.59,0,0,1,0,7.65L31.81,880.67,11.47,893.35c-2.73,1.7-6.14-.43-6.14-3.83V838.83c0-3.4,3.41-5.53,6.14-3.83l17.46,10.88,1.55-3.14L12,831.2a4.59,4.59,0,0,1,0-7.65L32.3,810.88Zm-19.2,38.53,13.35-27-11.34,7.07-17,10.61ZM11.63,864.17v16.72l14.33-29L11.63,843Zm19.79-8.88L18.74,881l9.92-6.18,17-10.61Zm21.06-27.91V812.66L38.91,840.13l13.57,8.46Z"/><path d="M52.64,724.61c2.73-1.7,6.15.42,6.15,3.82v50.69c0,3.41-3.42,5.53-6.15,3.83l-16.7-10.4-1.55,3.13,17.76,11.07a4.59,4.59,0,0,1,0,7.65L31.81,807.08,11.47,819.75c-2.73,1.7-6.14-.43-6.14-3.83V765.23c0-3.4,3.41-5.53,6.14-3.83l17.46,10.88,1.55-3.14L12,757.61A4.6,4.6,0,0,1,12,750L32.3,737.28Zm-19.2,38.52,13.35-27-11.34,7.06-17,10.61ZM11.63,790.58v16.71l14.33-29-14.33-8.93Zm19.79-8.89L18.74,807.36l9.92-6.18,17-10.6Zm21.06-27.91V739.06L38.91,766.54,52.48,775Z"/><path d="M52.64,651c2.73-1.7,6.15.42,6.15,3.83v50.69c0,3.4-3.42,5.53-6.15,3.82L35.94,699l-1.55,3.14,17.76,11.06a4.6,4.6,0,0,1,0,7.66L31.81,733.48,11.47,746.15c-2.73,1.7-6.14-.42-6.14-3.82v-50.7c0-3.4,3.41-5.52,6.14-3.82l17.46,10.87,1.55-3.13L12,684a4.59,4.59,0,0,1,0-7.65L32.3,663.68Zm-19.2,38.53,13.35-27-11.34,7.07-17,10.6ZM11.63,717v16.71l14.33-29-14.33-8.92Zm19.79-8.89L18.74,733.77l9.92-6.18,17-10.61Zm21.06-27.91V665.47L38.91,692.94l13.57,8.46Z"/><path d="M52.64,577.41c2.73-1.7,6.15.43,6.15,3.83v50.69c0,3.4-3.42,5.53-6.15,3.83l-16.7-10.41-1.55,3.14,17.76,11.07a4.59,4.59,0,0,1,0,7.65L31.81,659.88,11.47,672.56c-2.73,1.7-6.14-.43-6.14-3.83V618c0-3.4,3.41-5.53,6.14-3.83l17.46,10.88L30.48,622,12,610.41a4.59,4.59,0,0,1,0-7.65L32.3,590.09Zm-19.2,38.53,13.35-27L35.45,596l-17,10.61ZM11.63,643.38v16.71l14.33-29-14.33-8.92Zm19.79-8.88L18.74,660.17,28.66,654l17-10.61Zm21.06-27.91V591.87L38.91,619.34l13.57,8.46Z"/><path d="M45.69,569.79l-17,10.6-9.92,6.18,8.31-16.81H19.9L11.63,586.5V569.76H5.33v25.37c0,3.4,3.41,5.53,6.14,3.83l20.34-12.67,20.34-12.68a4.43,4.43,0,0,0,2.05-3.82v0H45.64Z"/><path d="M52.64,503.77c2.73-1.71,6.15.42,6.15,3.82v50.69c0,3.4-3.42,5.53-6.15,3.83L35.94,551.7l-1.55,3.14,17.76,11.07a4.45,4.45,0,0,1,2.05,3.83v0H45.64l0,0-14.27-8.89L27,569.76H19.87L26,557.45l-14.33-8.93v21.24H5.33V544.39c0-3.4,3.41-5.53,6.14-3.83l17.46,10.88,1.55-3.14L12,536.76a4.59,4.59,0,0,1,0-7.65L32.3,516.44Zm-19.2,38.52,13.35-27-11.34,7.06-17,10.61Zm19-9.35V518.22L38.91,545.7l13.57,8.45Z"/><path d="M52.64,430.17c2.73-1.7,6.15.42,6.15,3.83v50.69c0,3.4-3.42,5.52-6.15,3.82l-16.7-10.4-1.55,3.14,17.76,11.06a4.6,4.6,0,0,1,0,7.66L31.81,512.64,11.47,525.31c-2.73,1.7-6.14-.42-6.14-3.83V470.79c0-3.4,3.41-5.52,6.14-3.82l17.46,10.87,1.55-3.14L12,463.17a4.6,4.6,0,0,1,0-7.66L32.3,442.84ZM33.44,468.7l13.35-27-11.34,7.06-17,10.61ZM11.63,496.14v16.71l14.33-29-14.33-8.92Zm19.79-8.89L18.74,512.92l9.92-6.17,17-10.61Zm21.06-27.91V444.62L38.91,472.1l13.57,8.45Z"/><path d="M52.64,356.57c2.73-1.7,6.15.43,6.15,3.83v50.69c0,3.4-3.42,5.53-6.15,3.83l-16.7-10.41-1.55,3.14,17.76,11.07a4.59,4.59,0,0,1,0,7.65L31.81,439,11.47,451.71c-2.73,1.71-6.14-.42-6.14-3.82V397.2c0-3.4,3.41-5.53,6.14-3.83l17.46,10.87,1.55-3.13L12,389.57a4.59,4.59,0,0,1,0-7.65L32.3,369.24ZM33.44,395.1l13.35-27-11.34,7.07-17,10.6ZM11.63,422.54v16.71l14.33-29-14.33-8.92Zm19.79-8.88L18.74,439.33l9.92-6.18,17-10.61Zm21.06-27.92V371L38.91,398.5,52.48,407Z"/><path d="M52.64,283c2.73-1.71,6.15.42,6.15,3.82v50.69c0,3.4-3.42,5.53-6.15,3.83l-16.7-10.41-1.55,3.14,17.76,11.07a4.59,4.59,0,0,1,0,7.65L31.81,365.45,11.47,378.12c-2.73,1.7-6.14-.43-6.14-3.83V323.6c0-3.4,3.41-5.53,6.14-3.83l17.46,10.88,1.55-3.14L12,316a4.59,4.59,0,0,1,0-7.65L32.3,295.65ZM33.44,321.5l13.35-27-11.34,7.06-17,10.61ZM11.63,349v16.71l14.33-29-14.33-8.93Zm19.79-8.89L18.74,365.73l9.92-6.18,17-10.6Zm21.06-27.91V297.43L38.91,324.91l13.57,8.45Z"/><path d="M52.64,209.38c2.73-1.7,6.15.42,6.15,3.83V263.9c0,3.4-3.42,5.52-6.15,3.82l-16.7-10.4-1.55,3.14,17.76,11.06a4.6,4.6,0,0,1,0,7.66L31.81,291.85,11.47,304.52c-2.73,1.7-6.14-.42-6.14-3.83V250c0-3.4,3.41-5.52,6.14-3.82l17.46,10.87,1.55-3.14L12,242.38a4.6,4.6,0,0,1,0-7.66L32.3,222.05Zm-19.2,38.53,13.35-27-11.34,7.06-17,10.61ZM11.63,275.35v16.71l14.33-29-14.33-8.92Zm19.79-8.89L18.74,292.13,28.66,286l17-10.61Zm21.06-27.91V223.83L38.91,251.31l13.57,8.45Z"/><path d="M45.69,201.75l-17,10.61-9.92,6.18,8.31-16.81H19.9l-8.27,16.73V201.73H5.33V227.1c0,3.4,3.41,5.53,6.14,3.83l20.34-12.68,20.34-12.67a4.45,4.45,0,0,0,2.05-3.83v0H45.64Z"/><path d="M266.36,51.77a4.09,4.09,0,0,1-3.69,6.14h-49a4.1,4.1,0,0,1-3.7-6.14l10.06-16.7-3-1.55L206.32,51.28a4.26,4.26,0,0,1-3.7,2h0V44.77l0,0,8.59-14.26-8.61-4.4V19l11.9,6.09,8.62-14.33H202.6V4.45h24.51a4.1,4.1,0,0,1,3.7,6.15L220.3,28.05l3,1.55,11.15-18.51a4.36,4.36,0,0,1,7.4,0l12.24,20.34Zm-37.22-19.2,26.11,13.35-6.82-11.34-10.25-17Zm9,19H252.4L225.85,38l-8.17,13.57Z"/><path d="M337.47,51.77a4.09,4.09,0,0,1-3.69,6.14h-49a4.1,4.1,0,0,1-3.7-6.14l10-16.7-3-1.55L277.43,51.28a4.36,4.36,0,0,1-7.39,0L257.79,30.94,245.55,10.6a4.1,4.1,0,0,1,3.69-6.15h49a4.1,4.1,0,0,1,3.7,6.15L291.41,28.05l3,1.55,11.15-18.51a4.36,4.36,0,0,1,7.39,0l12.25,20.34Zm-37.22-19.2,26.11,13.35-6.82-11.34-10.25-17ZM273.73,10.76H257.59l28,14.33,8.62-14.33Zm8.59,19.79L257.51,17.87l6,9.92,10.25,17Zm27,21.06h14.22L297,38l-8.17,13.57Z"/><path d="M408.58,51.77a4.1,4.1,0,0,1-3.7,6.14h-49a4.1,4.1,0,0,1-3.7-6.14l10.05-16.7-3-1.55L348.54,51.28a4.36,4.36,0,0,1-7.4,0L328.9,30.94,316.65,10.6a4.11,4.11,0,0,1,3.7-6.15h49A4.1,4.1,0,0,1,373,10.6L362.52,28.05l3,1.55L376.7,11.09a4.36,4.36,0,0,1,7.39,0l12.25,20.34Zm-37.22-19.2,26.11,13.35-6.83-11.34-10.24-17ZM344.84,10.76H328.69l28,14.33,8.63-14.33Zm8.59,19.79L328.62,17.87l6,9.92,10.25,17Zm27,21.06h14.21L368.07,38,359.9,51.61Z"/><path d="M479.69,51.77a4.1,4.1,0,0,1-3.7,6.14H427a4.09,4.09,0,0,1-3.69-6.14l10.05-16.7-3-1.55L419.65,51.28a4.36,4.36,0,0,1-7.4,0L400,30.94,387.76,10.6a4.1,4.1,0,0,1,3.7-6.15h49a4.11,4.11,0,0,1,3.7,6.15L433.63,28.05l3,1.55,11.15-18.51a4.36,4.36,0,0,1,7.39,0l12.25,20.34Zm-37.23-19.2,26.12,13.35-6.83-11.34-10.25-17ZM416,10.76H399.8l28,14.33,8.63-14.33Zm8.58,19.79-24.8-12.68,6,9.92,10.25,17Zm27,21.06h14.22L439.18,38,431,51.61Z"/><path d="M550.8,51.77a4.1,4.1,0,0,1-3.7,6.14h-49a4.09,4.09,0,0,1-3.69-6.14l10.05-16.7-3-1.55L490.76,51.28a4.36,4.36,0,0,1-7.4,0L471.12,30.94,458.87,10.6a4.1,4.1,0,0,1,3.7-6.15h49a4.1,4.1,0,0,1,3.69,6.15l-10.5,17.45,3,1.55,11.14-18.51a4.36,4.36,0,0,1,7.4,0l12.24,20.34Zm-37.23-19.2,26.12,13.35-6.83-11.34-10.25-17ZM487.06,10.76H470.91l28,14.33,8.62-14.33Zm8.58,19.79-24.8-12.68,6,9.92,10.25,17Zm27,21.06h14.22L510.28,38l-8.17,13.57Z"/><path d="M558.17,44.81l-10.25-17-6-9.92,16.24,8.3V19L542,10.76h16.17V4.45H533.68A4.1,4.1,0,0,0,530,10.6l12.24,20.34,12.25,20.34a4.26,4.26,0,0,0,3.7,2h0V44.77Z"/><path d="M622,51.77a4.1,4.1,0,0,1-3.7,6.14h-49a4.1,4.1,0,0,1-3.7-6.14l10.06-16.7-3-1.55-10.7,17.76a4.25,4.25,0,0,1-3.69,2h0V44.77l0,0,8.58-14.26-8.61-4.4V19l11.9,6.09,8.62-14.33H558.19V4.45H582.7a4.1,4.1,0,0,1,3.7,6.15L575.89,28.05l3,1.55,11.14-18.51a4.36,4.36,0,0,1,7.4,0l12.24,20.34Zm-37.23-19.2,26.11,13.35L604,34.58l-10.25-17Zm9,19H608L581.44,38l-8.17,13.57Z"/><path d="M693.06,51.77a4.09,4.09,0,0,1-3.69,6.14h-49a4.1,4.1,0,0,1-3.7-6.14l10.06-16.7-3-1.55L633,51.28a4.36,4.36,0,0,1-7.39,0L613.38,30.94,601.14,10.6a4.1,4.1,0,0,1,3.7-6.15h49a4.1,4.1,0,0,1,3.7,6.15L647,28.05l3,1.55,11.15-18.51a4.36,4.36,0,0,1,7.4,0l12.24,20.34Zm-37.22-19.2L682,45.92l-6.82-11.34-10.25-17ZM629.32,10.76H613.18l28,14.33,8.62-14.33Zm8.59,19.79-24.8-12.68,6,9.92,10.24,17Zm27,21.06H679.1L652.55,38l-8.17,13.57Z"/><path d="M764.17,51.77a4.09,4.09,0,0,1-3.69,6.14h-49a4.1,4.1,0,0,1-3.7-6.14l10.05-16.7-3-1.55L704.13,51.28a4.36,4.36,0,0,1-7.4,0L684.49,30.94,672.25,10.6a4.1,4.1,0,0,1,3.69-6.15h49a4.1,4.1,0,0,1,3.7,6.15L718.11,28.05l3,1.55,11.15-18.51a4.36,4.36,0,0,1,7.39,0l12.25,20.34ZM727,32.57l26.11,13.35-6.82-11.34L736,17.55ZM700.43,10.76H684.29l28,14.33,8.62-14.33ZM709,30.55,684.21,17.87l6,9.92,10.25,17Zm27,21.06h14.22L723.66,38l-8.17,13.57Z"/><path d="M835.28,51.77a4.1,4.1,0,0,1-3.7,6.14h-49a4.1,4.1,0,0,1-3.7-6.14L789,35.07l-3-1.55L775.24,51.28a4.36,4.36,0,0,1-7.4,0L755.6,30.94,743.35,10.6a4.11,4.11,0,0,1,3.7-6.15h49a4.1,4.1,0,0,1,3.7,6.15L789.22,28.05l3,1.55L803.4,11.09a4.36,4.36,0,0,1,7.39,0L823,31.43Zm-37.22-19.2,26.11,13.35-6.83-11.34-10.25-17ZM771.54,10.76H755.39l28,14.33L792,10.76Zm8.59,19.79L755.32,17.87l6,9.92,10.25,17Zm27,21.06h14.22L794.77,38,786.6,51.61Z"/><path d="M906.39,51.77a4.1,4.1,0,0,1-3.7,6.14h-49A4.09,4.09,0,0,1,850,51.77l10.05-16.7-3-1.55L846.35,51.28a4.36,4.36,0,0,1-7.4,0L826.71,30.94,814.46,10.6a4.1,4.1,0,0,1,3.7-6.15h49a4.11,4.11,0,0,1,3.7,6.15L860.33,28.05l3,1.55,11.15-18.51a4.36,4.36,0,0,1,7.39,0l12.25,20.34Zm-37.23-19.2,26.12,13.35-6.83-11.34-10.25-17ZM842.65,10.76H826.5l28,14.33,8.63-14.33Zm8.58,19.79-24.8-12.68,6,9.92,10.25,17Zm27,21.06h14.22L865.88,38l-8.17,13.57Z"/><path d="M913.76,44.81l-10.25-17-6-9.92,16.24,8.3V19l-16.17-8.27h16.17V4.45H889.27a4.1,4.1,0,0,0-3.7,6.15l12.25,20.34,12.24,20.34a4.26,4.26,0,0,0,3.7,2h0V44.77Z"/><path d="M1063.74,267.72c-2.73,1.7-6.14-.42-6.14-3.82V213.21c0-3.41,3.41-5.53,6.14-3.83l16.7,10.4,1.55-3.13-17.76-11.07a4.45,4.45,0,0,1-2-3.83v0h8.56l0,0,14.26,8.89,4.4-8.91h7.15L1090.42,214l14.33,8.93V201.73h6.3V227.1c0,3.4-3.41,5.53-6.14,3.83l-17.45-10.88-1.55,3.14,18.51,11.53a4.6,4.6,0,0,1,0,7.66l-20.34,12.67Zm19.2-38.52-13.35,27,11.34-7.06,17-10.61Zm-19,9.35v14.72l13.57-27.48-13.57-8.45Z"/><path d="M1063.74,341.32c-2.73,1.7-6.14-.43-6.14-3.83V286.8c0-3.4,3.41-5.53,6.14-3.82l16.7,10.4,1.55-3.14-17.76-11.06a4.6,4.6,0,0,1,0-7.66l20.34-12.67,20.34-12.67c2.73-1.7,6.14.42,6.14,3.82v50.69c0,3.41-3.41,5.53-6.14,3.83l-17.45-10.87-1.55,3.13,18.51,11.54a4.59,4.59,0,0,1,0,7.65l-20.34,12.68Zm19.2-38.53-13.35,27,11.34-7.07,17-10.6Zm21.81-27.44V258.64l-14.33,29,14.33,8.92ZM1085,284.23l12.68-25.67-9.92,6.18-17,10.61Zm-21.06,27.92v14.71l13.57-27.47-13.57-8.46Z"/><path d="M1063.74,414.92c-2.73,1.7-6.14-.43-6.14-3.83V360.4c0-3.4,3.41-5.53,6.14-3.83l16.7,10.41,1.55-3.14-17.76-11.07a4.59,4.59,0,0,1,0-7.65l20.34-12.67,20.34-12.68c2.73-1.7,6.14.43,6.14,3.83v50.69c0,3.4-3.41,5.53-6.14,3.83l-17.45-10.88-1.55,3.14,18.51,11.54a4.59,4.59,0,0,1,0,7.65l-20.34,12.67Zm19.2-38.53-13.35,27,11.34-7.07,17-10.61ZM1104.75,349V332.23l-14.33,29,14.33,8.92ZM1085,357.83l12.68-25.67-9.92,6.18-17,10.61Zm-21.06,27.91v14.72L1077.47,373l-13.57-8.46Z"/><path d="M1063.74,488.51c-2.73,1.7-6.14-.42-6.14-3.82V434c0-3.41,3.41-5.53,6.14-3.83l16.7,10.4,1.55-3.13-17.76-11.07a4.59,4.59,0,0,1,0-7.65L1084.57,406l20.34-12.67c2.73-1.7,6.14.43,6.14,3.83v50.69c0,3.4-3.41,5.53-6.14,3.82l-17.45-10.87-1.55,3.14,18.51,11.53a4.6,4.6,0,0,1,0,7.66l-20.34,12.67Zm19.2-38.52-13.35,27,11.34-7.06,17-10.61Zm21.81-27.45V405.83l-14.33,29,14.33,8.93ZM1085,431.43l12.68-25.67-9.92,6.18-17,10.6Zm-21.06,27.91v14.72l13.57-27.48-13.57-8.45Z"/><path d="M1063.74,562.11c-2.73,1.7-6.14-.43-6.14-3.83V507.59c0-3.4,3.41-5.53,6.14-3.82l16.7,10.4L1082,511,1064.23,500a4.6,4.6,0,0,1,0-7.66l20.34-12.67L1104.91,467c2.73-1.7,6.14.42,6.14,3.82v50.69c0,3.41-3.41,5.53-6.14,3.83l-17.45-10.87-1.55,3.13,18.51,11.54a4.59,4.59,0,0,1,0,7.65l-20.34,12.68Zm19.2-38.53-13.35,27,11.34-7.07,17-10.6Zm21.81-27.44V479.43l-14.33,29,14.33,8.92ZM1085,505l12.68-25.67-9.92,6.18-17,10.61Zm-21.06,27.92v14.71l13.57-27.47-13.57-8.46Z"/><path d="M1070.7,569.74l17-10.61,9.92-6.18-8.3,16.81h7.14l8.27-16.74v16.74h6.3V544.39c0-3.4-3.41-5.53-6.14-3.83l-20.34,12.68-20.34,12.67a4.45,4.45,0,0,0-2,3.83v0h8.56Z"/><path d="M1063.74,635.76c-2.73,1.7-6.14-.43-6.14-3.83V581.24c0-3.4,3.41-5.53,6.14-3.83l16.7,10.41,1.55-3.14-17.76-11.07a4.43,4.43,0,0,1-2-3.82v0h8.56l0,0,14.26,8.88,4.4-8.91h7.15l-6.09,12.32,14.33,8.92V569.76h6.3v25.37c0,3.4-3.41,5.53-6.14,3.83l-17.45-10.88-1.55,3.14,18.51,11.54a4.59,4.59,0,0,1,0,7.65l-20.34,12.68Zm19.2-38.53-13.35,27,11.34-7.07,17-10.6Zm-19,9.36V621.3l13.57-27.47-13.57-8.46Z"/><path d="M1063.74,709.35c-2.73,1.71-6.14-.42-6.14-3.82V654.84c0-3.4,3.41-5.53,6.14-3.83l16.7,10.41,1.55-3.14-17.76-11.07a4.59,4.59,0,0,1,0-7.65l20.34-12.68,20.34-12.67c2.73-1.7,6.14.43,6.14,3.83v50.69c0,3.4-3.41,5.53-6.14,3.83l-17.45-10.88-1.55,3.14,18.51,11.54a4.59,4.59,0,0,1,0,7.65l-20.34,12.67Zm19.2-38.52-13.35,27,11.34-7.06,17-10.61Zm21.81-27.45V626.67l-14.33,29,14.33,8.93ZM1085,652.27l12.68-25.67-9.92,6.18-17,10.6Zm-21.06,27.91V694.9l13.57-27.48L1063.9,659Z"/><path d="M1063.74,783c-2.73,1.7-6.14-.42-6.14-3.83V728.43c0-3.4,3.41-5.52,6.14-3.82l16.7,10.4,1.55-3.14-17.76-11.06a4.6,4.6,0,0,1,0-7.66l20.34-12.67,20.34-12.67c2.73-1.7,6.14.42,6.14,3.82v50.7c0,3.4-3.41,5.52-6.14,3.82l-17.45-10.87-1.55,3.14L1104.42,750a4.6,4.6,0,0,1,0,7.66l-20.34,12.67Zm19.2-38.53-13.35,27,11.34-7.06,17-10.61ZM1104.75,717V700.27l-14.33,29,14.33,8.92ZM1085,725.87l12.68-25.67-9.92,6.17-17,10.61Zm-21.06,27.91V768.5L1077.47,741l-13.57-8.46Z"/><path d="M1063.74,856.55c-2.73,1.7-6.14-.43-6.14-3.83V802c0-3.4,3.41-5.53,6.14-3.83l16.7,10.41,1.55-3.14-17.76-11.07a4.59,4.59,0,0,1,0-7.65l20.34-12.67,20.34-12.68c2.73-1.7,6.14.43,6.14,3.83v50.69c0,3.4-3.41,5.53-6.14,3.83l-17.45-10.88-1.55,3.14,18.51,11.54a4.59,4.59,0,0,1,0,7.65l-20.34,12.68Zm19.2-38.53-13.35,27,11.34-7.07,17-10.6Zm21.81-27.44V773.87l-14.33,29,14.33,8.92ZM1085,799.46l12.68-25.67-9.92,6.18-17,10.61Zm-21.06,27.92v14.71l13.57-27.47-13.57-8.46Z"/><path d="M1063.74,930.14c-2.73,1.71-6.14-.42-6.14-3.82V875.63c0-3.41,3.41-5.53,6.14-3.83l16.7,10.41,1.55-3.14L1064.23,868a4.59,4.59,0,0,1,0-7.65l20.34-12.68L1104.91,835c2.73-1.7,6.14.43,6.14,3.83v50.69c0,3.4-3.41,5.53-6.14,3.83l-17.45-10.88-1.55,3.14,18.51,11.54a4.59,4.59,0,0,1,0,7.65l-20.34,12.67Zm19.2-38.52-13.35,27,11.34-7.06L1098,901Zm21.81-27.45V847.46l-14.33,29,14.33,8.93ZM1085,873.06l12.68-25.67-9.92,6.18-17,10.6ZM1063.9,901v14.72l13.57-27.48-13.57-8.45Z"/><path d="M1070.7,937.77l17-10.61,9.92-6.17-8.3,16.81h7.14l8.27-16.74V937.8h6.3V912.42c0-3.4-3.41-5.52-6.14-3.82l-20.34,12.67-20.34,12.67a4.45,4.45,0,0,0-2,3.83v0h8.56Z"/><path d="M1063.74,1003.79c-2.73,1.7-6.14-.42-6.14-3.82v-50.7c0-3.4,3.41-5.52,6.14-3.82l16.7,10.4,1.55-3.13-17.76-11.07a4.45,4.45,0,0,1-2-3.83v0h8.56l0,0,14.26,8.89,4.4-8.91h7.15l-6.09,12.31,14.33,8.93V937.8h6.3v25.37c0,3.4-3.41,5.53-6.14,3.82l-17.45-10.87-1.55,3.14,18.51,11.53a4.6,4.6,0,0,1,0,7.66l-20.34,12.67Zm19.2-38.52-13.35,27,11.34-7.06,17-10.61Zm-19,9.35v14.72l13.57-27.48-13.57-8.45Z"/><path d="M1063.74,1077.39c-2.73,1.7-6.14-.43-6.14-3.83v-50.69c0-3.4,3.41-5.53,6.14-3.83l16.7,10.41,1.55-3.14-17.76-11.06a4.6,4.6,0,0,1,0-7.66l20.34-12.67,20.34-12.67c2.73-1.7,6.14.42,6.14,3.82v50.69c0,3.41-3.41,5.53-6.14,3.83l-17.45-10.87-1.55,3.13,18.51,11.54a4.59,4.59,0,0,1,0,7.65l-20.34,12.68Zm19.2-38.53-13.35,27,11.34-7.07,17-10.6Zm21.81-27.44V994.71l-14.33,29,14.33,8.92ZM1085,1020.3l12.68-25.67-9.92,6.18-17,10.61Zm-21.06,27.92v14.71l13.57-27.47L1063.9,1027Z"/><path d="M1063.74,1151c-2.73,1.7-6.14-.43-6.14-3.83v-50.69c0-3.4,3.41-5.53,6.14-3.83l16.7,10.41,1.55-3.14-17.76-11.07a4.59,4.59,0,0,1,0-7.65l20.34-12.67,20.34-12.68c2.73-1.7,6.14.43,6.14,3.83v50.69c0,3.4-3.41,5.53-6.14,3.83l-17.45-10.88-1.55,3.14,18.51,11.54a4.59,4.59,0,0,1,0,7.65l-20.34,12.67Zm19.2-38.53-13.35,27,11.34-7.07,17-10.61Zm21.81-27.44V1068.3l-14.33,29,14.33,8.93ZM1085,1093.9l12.68-25.67-9.92,6.18-17,10.61Zm-21.06,27.91v14.72l13.57-27.48-13.57-8.45Z"/><path d="M1063.74,1224.58c-2.73,1.7-6.14-.42-6.14-3.82v-50.7c0-3.4,3.41-5.52,6.14-3.82l16.7,10.4,1.55-3.13-17.76-11.07a4.6,4.6,0,0,1,0-7.66l20.34-12.67,20.34-12.67c2.73-1.7,6.14.42,6.14,3.83V1184c0,3.4-3.41,5.53-6.14,3.82l-17.45-10.87-1.55,3.14,18.51,11.53a4.6,4.6,0,0,1,0,7.66l-20.34,12.67Zm19.2-38.52-13.35,27,11.34-7.06,17-10.61Zm21.81-27.45V1141.9l-14.33,29,14.33,8.93ZM1085,1167.5l12.68-25.67-9.92,6.17-17,10.61Zm-21.06,27.91v14.72l13.57-27.48-13.57-8.45Z"/><path d="M1063.74,1298.18c-2.73,1.7-6.14-.43-6.14-3.83v-50.69c0-3.4,3.41-5.53,6.14-3.83l16.7,10.41,1.55-3.14L1064.23,1236a4.6,4.6,0,0,1,0-7.66l20.34-12.67,20.34-12.67c2.73-1.7,6.14.42,6.14,3.82v50.69c0,3.41-3.41,5.53-6.14,3.83l-17.45-10.87-1.55,3.13,18.51,11.54a4.59,4.59,0,0,1,0,7.65l-20.34,12.68Zm19.2-38.53-13.35,27,11.34-7.07,17-10.6Zm21.81-27.44V1215.5l-14.33,29,14.33,8.92Zm-19.79,8.88,12.68-25.67-9.92,6.18-17,10.61ZM1063.9,1269v14.71l13.57-27.47-13.57-8.46Z"/><path d="M1070.7,1305.81l17-10.61,9.92-6.18-8.3,16.81h7.14l8.27-16.74v16.74h6.3v-25.37c0-3.4-3.41-5.53-6.14-3.83l-20.34,12.68L1064.23,1302a4.45,4.45,0,0,0-2,3.83v0h8.56Z"/><path d="M850,1455.79a4.1,4.1,0,0,1,3.69-6.15h49a4.1,4.1,0,0,1,3.7,6.15l-10,16.7,3,1.55,10.69-17.76a4.26,4.26,0,0,1,3.7-2h0v8.56l0,0L905.17,1477l8.61,4.4v7.15l-11.9-6.09-8.62,14.33h20.52v6.3H889.27a4.1,4.1,0,0,1-3.7-6.14l10.51-17.46-3-1.55-11.15,18.52a4.36,4.36,0,0,1-7.39,0l-12.25-20.34Zm37.22,19.2-26.11-13.35L868,1473l10.25,17Zm-9-19H864l26.55,13.57L898.7,1456Z"/><path d="M778.91,1455.79a4.1,4.1,0,0,1,3.7-6.15h49a4.1,4.1,0,0,1,3.7,6.15l-10,16.7,3,1.55L839,1456.28a4.36,4.36,0,0,1,7.4,0l12.24,20.34L870.84,1497a4.1,4.1,0,0,1-3.7,6.14h-49a4.1,4.1,0,0,1-3.7-6.14L825,1479.5l-3-1.55-11.15,18.52a4.36,4.36,0,0,1-7.39,0l-12.25-20.34Zm37.22,19.2L790,1461.64l6.83,11.34,10.24,17Zm26.52,21.81H858.8l-28-14.33-8.63,14.33ZM834.06,1477l24.81,12.68-6-9.92-10.25-17Zm-27-21.06H792.88l26.54,13.57,8.17-13.57Z"/><path d="M707.8,1455.79a4.1,4.1,0,0,1,3.7-6.15h49a4.1,4.1,0,0,1,3.69,6.15l-10,16.7,3,1.55,10.69-17.76a4.36,4.36,0,0,1,7.4,0l12.24,20.34L799.73,1497a4.1,4.1,0,0,1-3.7,6.14h-49a4.1,4.1,0,0,1-3.7-6.14l10.51-17.46-3-1.55-11.15,18.52a4.36,4.36,0,0,1-7.39,0L720,1476.13ZM745,1475l-26.12-13.35,6.83,11.34L736,1490Zm26.51,21.81h16.15l-28-14.33L751,1496.8ZM763,1477l24.8,12.68-6-9.92-10.25-17ZM736,1456H721.77l26.54,13.57,8.17-13.57Z"/><path d="M636.69,1455.79a4.1,4.1,0,0,1,3.7-6.15h49a4.1,4.1,0,0,1,3.69,6.15l-10,16.7,3,1.55,10.69-17.76a4.36,4.36,0,0,1,7.4,0l12.24,20.34L728.62,1497a4.1,4.1,0,0,1-3.7,6.14h-49a4.09,4.09,0,0,1-3.69-6.14l10.5-17.46-3-1.55-11.14,18.52a4.36,4.36,0,0,1-7.4,0l-12.24-20.34Zm37.23,19.2-26.12-13.35,6.83,11.34,10.25,17Zm26.51,21.81h16.15l-28-14.33-8.62,14.33ZM691.85,1477l24.8,12.68-6-9.92-10.25-17Zm-27-21.06H650.66l26.55,13.57,8.17-13.57Z"/><path d="M565.58,1455.79a4.1,4.1,0,0,1,3.7-6.15h49a4.1,4.1,0,0,1,3.7,6.15l-10.06,16.7,3,1.55,10.7-17.76a4.36,4.36,0,0,1,7.39,0l12.25,20.34L657.51,1497a4.1,4.1,0,0,1-3.7,6.14h-49a4.09,4.09,0,0,1-3.7-6.14l10.51-17.46-3-1.55-11.14,18.52a4.36,4.36,0,0,1-7.4,0l-12.24-20.34Zm37.23,19.2-26.11-13.35,6.82,11.34,10.25,17Zm26.51,21.81h16.15l-28-14.33-8.62,14.33ZM620.74,1477l24.8,12.68-6-9.92-10.25-17Zm-27-21.06H579.55l26.55,13.57,8.17-13.57Z"/><path d="M558.22,1462.74l10.24,17,6,9.92-16.24-8.31v7.15l16.17,8.27H558.19v6.3H582.7a4.09,4.09,0,0,0,3.7-6.14l-12.24-20.34-12.25-20.34a4.25,4.25,0,0,0-3.69-2h0v8.56Z"/><path d="M494.43,1455.79a4.1,4.1,0,0,1,3.69-6.15h49a4.1,4.1,0,0,1,3.7,6.15l-10.06,16.7,3,1.55,10.69-17.76a4.26,4.26,0,0,1,3.7-2h0v8.56l0,0L549.58,1477l8.61,4.4v7.15l-11.9-6.09-8.62,14.33h20.52v6.3H533.68A4.1,4.1,0,0,1,530,1497l10.51-17.46-3-1.55-11.15,18.52a4.36,4.36,0,0,1-7.4,0l-12.24-20.34Zm37.22,19.2-26.11-13.35,6.82,11.34,10.25,17Zm-9-19H508.39l26.55,13.57,8.17-13.57Z"/><path d="M423.32,1455.79a4.1,4.1,0,0,1,3.69-6.15h49a4.1,4.1,0,0,1,3.7,6.15l-10.05,16.7,3,1.55,10.69-17.76a4.36,4.36,0,0,1,7.4,0L503,1476.62,515.24,1497a4.09,4.09,0,0,1-3.69,6.14h-49a4.1,4.1,0,0,1-3.7-6.14l10.51-17.46-3-1.55-11.15,18.52a4.36,4.36,0,0,1-7.39,0l-12.25-20.34Zm37.22,19.2-26.11-13.35,6.82,11.34,10.25,17Zm26.52,21.81H503.2l-28-14.33-8.62,14.33ZM478.47,1477l24.81,12.68-6-9.92-10.25-17Zm-27-21.06H437.28l26.55,13.57L472,1456Z"/><path d="M352.21,1455.79a4.1,4.1,0,0,1,3.7-6.15h49a4.1,4.1,0,0,1,3.7,6.15l-10.05,16.7,3,1.55,10.69-17.76a4.36,4.36,0,0,1,7.4,0l12.24,20.34L444.14,1497a4.1,4.1,0,0,1-3.7,6.14h-49a4.1,4.1,0,0,1-3.7-6.14l10.51-17.46-3-1.55-11.15,18.52a4.36,4.36,0,0,1-7.39,0l-12.25-20.34Zm37.22,19.2-26.11-13.35,6.83,11.34,10.24,17ZM416,1496.8H432.1l-28-14.33-8.63,14.33ZM407.36,1477l24.81,12.68-6-9.92-10.25-17Zm-27-21.06H366.18l26.54,13.57,8.17-13.57Z"/><path d="M281.1,1455.79a4.1,4.1,0,0,1,3.7-6.15h49a4.1,4.1,0,0,1,3.69,6.15l-10.05,16.7,3,1.55,10.69-17.76a4.36,4.36,0,0,1,7.4,0l12.24,20.34L373,1497a4.1,4.1,0,0,1-3.7,6.14h-49a4.1,4.1,0,0,1-3.7-6.14l10.51-17.46-3-1.55L313,1496.47a4.36,4.36,0,0,1-7.39,0l-12.25-20.34Zm37.23,19.2-26.12-13.35L299,1473l10.25,17Zm26.51,21.81H361l-28-14.33-8.63,14.33ZM336.26,1477l24.8,12.68-6-9.92-10.25-17Zm-27-21.06H295.07l26.54,13.57,8.17-13.57Z"/><path d="M210,1455.79a4.1,4.1,0,0,1,3.7-6.15h49a4.1,4.1,0,0,1,3.69,6.15l-10.05,16.7,3,1.55,10.7-17.76a4.36,4.36,0,0,1,7.39,0l12.24,20.34L301.92,1497a4.1,4.1,0,0,1-3.7,6.14h-49a4.09,4.09,0,0,1-3.69-6.14l10.5-17.46-3-1.55-11.14,18.52a4.36,4.36,0,0,1-7.4,0l-12.24-20.34Zm37.23,19.2-26.12-13.35,6.83,11.34,10.25,17Zm26.51,21.81h16.15l-28-14.33-8.62,14.33ZM265.15,1477l24.8,12.68-6-9.92-10.25-17Zm-27-21.06H224l26.55,13.57,8.17-13.57Z"/><path d="M202.62,1462.74l10.25,17,6,9.92-16.24-8.31v7.15l16.17,8.27H202.6v6.3h24.51a4.1,4.1,0,0,0,3.7-6.14l-12.24-20.34-12.25-20.34a4.26,4.26,0,0,0-3.7-2h0v8.56Z"/><g class="cls-4"><path d="M52.64,140.56a4.1,4.1,0,0,1,6.15,3.55v47a4.1,4.1,0,0,1-6.15,3.55L35.94,185l-1.55,2.91,17.76,10.26a4,4,0,0,1,2.05,3.54v0H45.64l0,0-14.27-8.23L27,201.73H19.87L26,190.31,11.63,182v19.69H5.33V178.21a4.09,4.09,0,0,1,6.14-3.54l17.46,10.08,1.55-2.91L12,171.15a4.1,4.1,0,0,1,0-7.1L32.3,152.31Zm-19.2,35.71,13.35-25.05-11.34,6.55-17,9.83Zm19-8.67V154L38.91,179.42l13.57,7.84Z"/><path d="M52.64,72.36a4.1,4.1,0,0,1,6.15,3.54v47a4.1,4.1,0,0,1-6.15,3.55l-16.7-9.65-1.55,2.91L52.15,130a4.09,4.09,0,0,1,0,7.09L31.81,148.79,11.47,160.53A4.09,4.09,0,0,1,5.33,157V110a4.09,4.09,0,0,1,6.14-3.55l17.46,10.08,1.55-2.91L12,102.94a4.09,4.09,0,0,1,0-7.09L32.3,84.1Zm-19.2,35.7L46.79,83,35.45,89.56l-17,9.83ZM11.63,133.5V149L26,122.11l-14.33-8.28Zm19.79-8.24L18.74,149.05l9.92-5.72,17-9.83ZM52.48,99.39V85.75L38.91,111.22l13.57,7.83Z"/><path d="M52.64,4.15a4.1,4.1,0,0,1,6.15,3.54v47a4.1,4.1,0,0,1-6.15,3.55l-16.7-9.64-1.55,2.9L52.15,61.74a4.09,4.09,0,0,1,0,7.09L31.81,80.58,11.47,92.32a4.09,4.09,0,0,1-6.14-3.54v-47a4.1,4.1,0,0,1,6.14-3.55L28.93,48.33l1.55-2.91L12,34.73a4.09,4.09,0,0,1,0-7.09L32.3,15.89Zm-19.2,35.7,13.35-25L35.45,21.35l-17,9.83ZM11.63,65.29V80.78L26,53.9,11.63,45.63Zm19.79-8.24L18.74,80.84l9.92-5.72,17-9.83ZM52.48,31.18V17.54L38.91,43l13.57,7.83Z"/><path d="M52.64-64.06a4.1,4.1,0,0,1,6.15,3.55v47A4.1,4.1,0,0,1,52.64-10l-16.7-9.64-1.55,2.91L52.15-6.47A4.06,4.06,0,0,1,54.2-2.92,4.06,4.06,0,0,1,52.15.63L31.81,12.37,11.47,24.12a4.1,4.1,0,0,1-6.14-3.55v-47A4.1,4.1,0,0,1,11.47-30L28.93-19.88l1.55-2.91L12-33.48A4,4,0,0,1,9.91-37,4.06,4.06,0,0,1,12-40.57L32.3-52.31ZM33.44-28.35l13.35-25L35.45-46.85,18.43-37ZM11.63-2.92V12.57L26-14.31,11.63-22.58Zm19.79-8.23L18.74,12.64l9.92-5.73,17-9.83ZM52.48-37V-50.66L38.91-25.2l13.57,7.84Z"/></g><g class="cls-5"><path d="M59.09,51.77a4.09,4.09,0,0,1-3.54,6.14h-47A4.09,4.09,0,0,1,5,51.77l9.64-16.7-2.9-1.55L1.5,51.28a4.06,4.06,0,0,1-3.55,2,4,4,0,0,1-3.54-2L-17.34,30.94-29.08,10.6a4.1,4.1,0,0,1,3.54-6.15h47A4.1,4.1,0,0,1,25,10.6L14.91,28.05l2.91,1.55L28.51,11.09a4.09,4.09,0,0,1,7.09,0L47.35,31.43Zm-35.7-19.2,25,13.35L41.89,34.58l-9.83-17ZM-2,10.76H-17.53L9.34,25.09l8.27-14.33ZM6.19,30.55-17.6,17.87l5.72,9.92,9.83,17ZM32.06,51.61H45.7L20.23,38,12.4,51.61Z"/><path d="M127.3,51.77a4.09,4.09,0,0,1-3.55,6.14h-47a4.09,4.09,0,0,1-3.54-6.14l9.64-16.7L80,33.52,69.71,51.28a4.1,4.1,0,0,1-7.1,0L50.87,30.94,39.12,10.6a4.1,4.1,0,0,1,3.55-6.15h47A4.1,4.1,0,0,1,93.2,10.6L83.12,28.05,86,29.6,96.72,11.09a4.09,4.09,0,0,1,7.09,0l11.75,20.34ZM91.59,32.57l25,13.35-6.55-11.34-9.83-17ZM66.16,10.76H50.67L77.55,25.09l8.27-14.33ZM74.4,30.55,50.6,17.87l5.73,9.92,9.83,17Zm25.86,21.06H113.9L88.44,38,80.6,51.61Z"/><path d="M195.51,51.77A4.1,4.1,0,0,1,192,57.91H145a4.09,4.09,0,0,1-3.54-6.14l9.64-16.7-2.91-1.55L137.91,51.28a4.09,4.09,0,0,1-7.09,0L119.08,30.94,107.33,10.6a4.1,4.1,0,0,1,3.55-6.15h47a4.1,4.1,0,0,1,3.54,6.15L151.33,28.05l2.9,1.55,10.7-18.51a4.09,4.09,0,0,1,7.09,0l11.74,20.34ZM159.8,32.57l25,13.35L178.3,34.58l-9.83-17ZM134.37,10.76H118.88l26.88,14.33L154,10.76Zm8.23,19.79L118.81,17.87l5.73,9.92,9.83,17Zm25.87,21.06h13.64L156.65,38l-7.84,13.57Z"/><path d="M202.58,44.81l-9.83-17L187,17.87l15.58,8.3V19l-15.51-8.27H202.6V4.45H179.09a4.1,4.1,0,0,0-3.55,6.15l11.74,20.34L199,51.28a4.06,4.06,0,0,0,3.55,2h0V44.77Z"/></g><g class="cls-6"><path d="M975,51.77a4.1,4.1,0,0,1-3.55,6.14h-47a4.1,4.1,0,0,1-3.55-6.14l9.65-16.7-2.91-1.55L917.35,51.28a4,4,0,0,1-3.54,2h0V44.77l0,0L922,30.55l-8.26-4.4V19l11.42,6.09,8.27-14.33H913.78V4.45H937.3a4.1,4.1,0,0,1,3.54,6.15L930.76,28.05l2.91,1.55,10.69-18.51a4.1,4.1,0,0,1,7.1,0L963.2,31.43Zm-35.71-19.2,25,13.35-6.55-11.34-9.83-17Zm8.67,19h13.64L936.09,38l-7.84,13.57Z"/><path d="M1043.15,51.77a4.09,4.09,0,0,1-3.54,6.14h-47a4.1,4.1,0,0,1-3.55-6.14l9.64-16.7-2.9-1.55L985.56,51.28a4.09,4.09,0,0,1-7.09,0L966.72,30.94,955,10.6a4.1,4.1,0,0,1,3.54-6.15h47a4.1,4.1,0,0,1,3.55,6.15L999,28.05l2.91,1.55,10.69-18.51a4.09,4.09,0,0,1,7.09,0l11.75,20.34Zm-35.7-19.2,25,13.35L1026,34.58l-9.83-17ZM982,10.76H966.53L993.4,25.09l8.27-14.33Zm8.24,19.79L966.46,17.87l5.72,9.92,9.83,17Zm25.87,21.06h13.64L1004.29,38l-7.83,13.57Z"/><path d="M1111.36,51.77a4.09,4.09,0,0,1-3.55,6.14h-47a4.09,4.09,0,0,1-3.55-6.14l9.64-16.7L1064,33.52l-10.25,17.76a4.1,4.1,0,0,1-7.1,0l-11.74-20.34L1023.19,10.6a4.1,4.1,0,0,1,3.54-6.15h47a4.1,4.1,0,0,1,3.55,6.15l-10.08,17.45,2.91,1.55,10.69-18.51a4.09,4.09,0,0,1,7.09,0l11.75,20.34Zm-35.7-19.2,25,13.35-6.54-11.34-9.83-17Zm-25.44-21.81h-15.49l26.88,14.33,8.27-14.33Zm8.24,19.79-23.79-12.68,5.72,9.92,9.83,17Zm25.87,21.06H1098L1072.5,38l-7.84,13.57Z"/><path d="M1179.57,51.77a4.09,4.09,0,0,1-3.55,6.14h-47a4.09,4.09,0,0,1-3.54-6.14l9.64-16.7-2.91-1.55L1122,51.28a4.1,4.1,0,0,1-7.1,0l-11.74-20.34L1091.39,10.6a4.1,4.1,0,0,1,3.55-6.15h47a4.1,4.1,0,0,1,3.55,6.15l-10.08,17.45,2.9,1.55L1149,11.09a4.09,4.09,0,0,1,7.09,0l11.74,20.34Zm-35.71-19.2,25.05,13.35-6.55-11.34-9.83-17Zm-25.43-21.81h-15.49l26.88,14.33,8.27-14.33Zm8.23,19.79-23.79-12.68,5.73,9.92,9.83,17Zm25.87,21.06h13.64L1140.71,38l-7.84,13.57Z"/></g><g class="cls-7"><path d="M1063.74,58.22a4.09,4.09,0,0,1-6.14-3.55v-47a4.09,4.09,0,0,1,6.14-3.54l16.7,9.64,1.55-2.91L1064.23.63a4.06,4.06,0,0,1-2-3.55,4.06,4.06,0,0,1,2-3.55l20.34-11.74L1104.91-30a4.1,4.1,0,0,1,6.14,3.55v47a4.1,4.1,0,0,1-6.14,3.55L1087.46,14,1085.91,17l18.51,10.69a4.09,4.09,0,0,1,0,7.09l-20.34,11.75Zm19.2-35.71-13.35,25.05L1080.93,41l17-9.83Zm21.81-25.43V-18.41L1090.42,8.47l14.33,8.27ZM1085,5.32l12.68-23.8-9.92,5.73-17,9.83ZM1063.9,31.18V44.82l13.57-25.46-13.57-7.84Z"/><path d="M1063.74,126.43a4.1,4.1,0,0,1-6.14-3.55v-47a4.09,4.09,0,0,1,6.14-3.54l16.7,9.64,1.55-2.91-17.76-10.26a4.09,4.09,0,0,1,0-7.09L1084.57,50l20.34-11.75a4.1,4.1,0,0,1,6.14,3.55v47a4.09,4.09,0,0,1-6.14,3.54l-17.45-10.07-1.55,2.9,18.51,10.7a4.09,4.09,0,0,1,0,7.09l-20.34,11.74Zm19.2-35.71-13.35,25,11.34-6.55,17-9.83Zm21.81-25.43V49.8l-14.33,26.88L1104.75,85ZM1085,73.52l12.68-23.79-9.92,5.73-17,9.83ZM1063.9,99.39V113l13.57-25.46-13.57-7.84Z"/><path d="M1063.74,194.64a4.1,4.1,0,0,1-6.14-3.55v-47a4.1,4.1,0,0,1,6.14-3.55l16.7,9.65,1.55-2.91L1064.23,137a4.09,4.09,0,0,1,0-7.09l20.34-11.75,20.34-11.74a4.09,4.09,0,0,1,6.14,3.55v47a4.09,4.09,0,0,1-6.14,3.54l-17.45-10.08-1.55,2.91,18.51,10.69a4.1,4.1,0,0,1,0,7.1l-20.34,11.74Zm19.2-35.71-13.35,25,11.34-6.55,17-9.83Zm21.81-25.43V118l-14.33,26.88,14.33,8.27ZM1085,141.73l12.68-23.79-9.92,5.73-17,9.83ZM1063.9,167.6v13.64l13.57-25.47-13.57-7.83Z"/><path d="M1070.7,201.7l17-9.83,9.92-5.72-8.3,15.58h7.14l8.27-15.51v15.51h6.3V178.21a4.09,4.09,0,0,0-6.14-3.54l-20.34,11.74-20.34,11.75a4,4,0,0,0-2,3.54v0h8.56Z"/></g><g class="cls-8"><path d="M1063.74,1367a4.09,4.09,0,0,1-6.14-3.54v-47a4.1,4.1,0,0,1,6.14-3.55l16.7,9.65,1.55-2.91-17.76-10.26a4.06,4.06,0,0,1-2-3.55v0h8.56l0,0,14.26,8.24,4.4-8.26h7.15l-6.09,11.41,14.33,8.28v-19.69h6.3v23.51a4.09,4.09,0,0,1-6.14,3.55l-17.45-10.08-1.55,2.91,18.51,10.69a4.1,4.1,0,0,1,0,7.1l-20.34,11.74Zm19.2-35.7-13.35,25,11.34-6.55,17-9.83Zm-19,8.67v13.64l13.57-25.47-13.57-7.83Z"/><path d="M1063.74,1435.2a4.09,4.09,0,0,1-6.14-3.54v-47a4.09,4.09,0,0,1,6.14-3.55l16.7,9.64,1.55-2.9-17.76-10.26a4.09,4.09,0,0,1,0-7.09l20.34-11.75,20.34-11.74a4.09,4.09,0,0,1,6.14,3.54v47a4.1,4.1,0,0,1-6.14,3.55L1087.46,1391l-1.55,2.91,18.51,10.69a4.09,4.09,0,0,1,0,7.09l-20.34,11.75Zm19.2-35.7-13.35,25,11.34-6.54,17-9.83Zm21.81-25.44v-15.49l-14.33,26.88,14.33,8.27ZM1085,1382.3l12.68-23.79-9.92,5.72-17,9.83Zm-21.06,25.87v13.64l13.57-25.47-13.57-7.83Z"/><path d="M1063.74,1503.41a4.09,4.09,0,0,1-6.14-3.55v-47a4.09,4.09,0,0,1,6.14-3.54l16.7,9.64,1.55-2.91-17.76-10.25a4.1,4.1,0,0,1,0-7.1l20.34-11.74,20.34-11.75a4.1,4.1,0,0,1,6.14,3.55v47a4.1,4.1,0,0,1-6.14,3.55l-17.45-10.08-1.55,2.91,18.51,10.69a4.09,4.09,0,0,1,0,7.09l-20.34,11.74Zm19.2-35.71-13.35,25,11.34-6.55,17-9.83Zm21.81-25.43v-15.49l-14.33,26.88,14.33,8.27ZM1085,1450.5l12.68-23.79-9.92,5.73-17,9.83Zm-21.06,25.87V1490l13.57-25.46-13.57-7.84Z"/><path d="M1063.74,1571.62a4.1,4.1,0,0,1-6.14-3.55v-47a4.1,4.1,0,0,1,6.14-3.55l16.7,9.65,1.55-2.91L1064.23,1514a4.09,4.09,0,0,1,0-7.09l20.34-11.74,20.34-11.75a4.09,4.09,0,0,1,6.14,3.55v47a4.09,4.09,0,0,1-6.14,3.54l-17.45-10.08-1.55,2.91,18.51,10.69a4.1,4.1,0,0,1,0,7.1l-20.34,11.74Zm19.2-35.71-13.35,25,11.34-6.55,17-9.83Zm21.81-25.43V1495l-14.33,26.88,14.33,8.27Zm-19.79,8.23,12.68-23.79-9.92,5.73-17,9.83Zm-21.06,25.87v13.64l13.57-25.46-13.57-7.84Z"/></g><g class="cls-9"><path d="M1057.29,1455.79a4.1,4.1,0,0,1,3.55-6.15h47a4.1,4.1,0,0,1,3.55,6.15l-9.64,16.7,2.91,1.55,10.25-17.76a4.1,4.1,0,0,1,7.1,0l11.74,20.34,11.75,20.34a4.1,4.1,0,0,1-3.55,6.14h-47a4.1,4.1,0,0,1-3.55-6.14l10.08-17.46-2.91-1.55-10.69,18.52a4.09,4.09,0,0,1-7.09,0L1069,1476.13ZM1093,1475l-25-13.35,6.54,11.34,9.84,17Zm25.43,21.81h15.49L1107,1482.47l-8.27,14.33Zm-8.24-19.79,23.8,12.68-5.73-9.92-9.83-17ZM1084.33,1456h-13.64l25.46,13.57L1104,1456Z"/><path d="M989.08,1455.79a4.1,4.1,0,0,1,3.55-6.15h47a4.1,4.1,0,0,1,3.54,6.15l-9.64,16.7,2.91,1.55,10.25-17.76a4.1,4.1,0,0,1,7.1,0l11.74,20.34,11.75,20.34a4.1,4.1,0,0,1-3.55,6.14h-47a4.09,4.09,0,0,1-3.54-6.14l10.07-17.46-2.9-1.55-10.7,18.52a4.09,4.09,0,0,1-7.09,0l-11.74-20.34Zm35.71,19.2-25-13.35,6.55,11.34,9.83,17Zm25.43,21.81h15.49l-26.88-14.33-8.27,14.33ZM1042,1477l23.79,12.68-5.73-9.92-9.83-17ZM1016.12,1456h-13.64l25.46,13.57,7.84-13.57Z"/><path d="M920.87,1455.79a4.1,4.1,0,0,1,3.55-6.15h47a4.1,4.1,0,0,1,3.55,6.15l-9.65,16.7,2.91,1.55,10.26-17.76a4.09,4.09,0,0,1,7.09,0l11.75,20.34,11.74,20.34a4.09,4.09,0,0,1-3.55,6.14h-47A4.09,4.09,0,0,1,955,1497l10.08-17.46-2.91-1.55-10.69,18.52a4.1,4.1,0,0,1-7.1,0l-11.74-20.34Zm35.71,19.2-25.05-13.35,6.55,11.34,9.83,17ZM982,1496.8H997.5l-26.88-14.33-8.27,14.33ZM973.78,1477l23.79,12.68-5.73-9.92-9.83-17ZM947.91,1456H934.27l25.46,13.57,7.84-13.57Z"/><path d="M913.81,1462.74l9.83,17,5.72,9.92-15.58-8.31v7.15l15.51,8.27H913.78v6.3H937.3a4.09,4.09,0,0,0,3.54-6.14l-11.74-20.34-11.75-20.34a4,4,0,0,0-3.54-2h0v8.56Z"/></g><g class="cls-10"><path d="M141.44,1455.79a4.1,4.1,0,0,1,3.54-6.15h47a4.1,4.1,0,0,1,3.55,6.15l-9.65,16.7,2.91,1.55L199,1456.28a4.06,4.06,0,0,1,3.55-2h0v8.56l0,0L194.34,1477l8.26,4.4v7.15l-11.41-6.09-8.28,14.33H202.6v6.3H179.09a4.09,4.09,0,0,1-3.55-6.14l10.08-17.46-2.91-1.55L172,1496.47a4.1,4.1,0,0,1-7.1,0l-11.74-20.34Zm35.7,19.2-25-13.35,6.55,11.34,9.83,17Zm-8.67-19H154.83l25.47,13.57,7.83-13.57Z"/><path d="M73.23,1455.79a4.1,4.1,0,0,1,3.54-6.15h47a4.1,4.1,0,0,1,3.55,6.15l-9.64,16.7,2.9,1.55,10.26-17.76a4.09,4.09,0,0,1,7.09,0l11.75,20.34L161.4,1497a4.09,4.09,0,0,1-3.54,6.14h-47a4.1,4.1,0,0,1-3.55-6.14l10.08-17.46L114.5,1478l-10.69,18.52a4.09,4.09,0,0,1-7.09,0L85,1476.13Zm35.7,19.2-25-13.35L90.43,1473l9.83,17Zm25.44,21.81h15.49L123,1482.47l-8.27,14.33ZM126.13,1477l23.79,12.68-5.72-9.92-9.83-17ZM100.26,1456H86.62l25.47,13.57,7.83-13.57Z"/><path d="M5,1455.79a4.1,4.1,0,0,1,3.55-6.15h47a4.1,4.1,0,0,1,3.54,6.15l-9.64,16.7,2.91,1.55,10.25-17.76a4.1,4.1,0,0,1,7.1,0l11.74,20.34L93.2,1497a4.1,4.1,0,0,1-3.55,6.14h-47a4.1,4.1,0,0,1-3.55-6.14L49.2,1479.5,46.29,1478,35.6,1496.47a4.09,4.09,0,0,1-7.09,0l-11.74-20.34ZM40.73,1475l-25-13.35L22.23,1473l9.83,17Zm25.43,21.81H81.65l-26.88-14.33L46.5,1496.8ZM57.93,1477l23.79,12.68L76,1479.77l-9.83-17ZM32.06,1456H18.42l25.46,13.57L51.72,1456Z"/><path d="M-63.19,1455.79a4.1,4.1,0,0,1,3.55-6.15h47a4.1,4.1,0,0,1,3.55,6.15l-9.65,16.7,2.91,1.55,10.26-17.76a4,4,0,0,1,3.54-2,4.06,4.06,0,0,1,3.55,2l11.74,20.34L25,1497a4.09,4.09,0,0,1-3.55,6.14h-47a4.09,4.09,0,0,1-3.54-6.14L-19,1479.5l-2.91-1.55-10.69,18.52a4.06,4.06,0,0,1-3.55,2,4.06,4.06,0,0,1-3.55-2l-11.74-20.34Zm35.71,19.2-25-13.35L-46,1473l9.83,17ZM-2,1496.8H13.44l-26.88-14.33-8.27,14.33ZM-10.28,1477l23.79,12.68-5.73-9.92-9.83-17ZM-36.15,1456H-49.79l25.46,13.57,7.84-13.57Z"/></g><g class="cls-11"><path d="M52.64,1517.54a4.1,4.1,0,0,1,6.15,3.55v47a4.1,4.1,0,0,1-6.15,3.55L35.94,1562l-1.55,2.91,17.76,10.26a4.09,4.09,0,0,1,0,7.09L31.81,1594l-20.34,11.74a4.09,4.09,0,0,1-6.14-3.55v-47a4.09,4.09,0,0,1,6.14-3.55l17.46,10.08,1.55-2.91L12,1548.13a4.1,4.1,0,0,1,0-7.1l20.34-11.74Zm-19.2,35.71,13.35-25-11.34,6.55-17,9.83Zm-21.81,25.43v15.49L26,1567.3,11.63,1559Zm19.79-8.23-12.68,23.79,9.92-5.72,17-9.84Zm21.06-25.87v-13.64l-13.57,25.47,13.57,7.83Z"/><path d="M52.64,1449.34a4.1,4.1,0,0,1,6.15,3.54v47a4.1,4.1,0,0,1-6.15,3.55l-16.7-9.64-1.55,2.9,17.76,10.26a4.09,4.09,0,0,1,0,7.09l-20.34,11.75-20.34,11.74A4.09,4.09,0,0,1,5.33,1534v-47a4.09,4.09,0,0,1,6.14-3.55l17.46,10.08,1.55-2.91L12,1479.92a4.09,4.09,0,0,1,0-7.09l20.34-11.75ZM33.44,1485l13.35-25-11.34,6.54-17,9.83Zm-21.81,25.44V1526L26,1499.09l-14.33-8.27Zm19.79-8.24L18.74,1526l9.92-5.72,17-9.83Zm21.06-25.87v-13.64L38.91,1488.2,52.48,1496Z"/><path d="M52.64,1381.13a4.1,4.1,0,0,1,6.15,3.55v47a4.1,4.1,0,0,1-6.15,3.54l-16.7-9.64-1.55,2.91,17.76,10.25a4.1,4.1,0,0,1,0,7.1l-20.34,11.74-20.34,11.75a4.1,4.1,0,0,1-6.14-3.55v-47a4.1,4.1,0,0,1,6.14-3.55l17.46,10.08,1.55-2.91L12,1411.71a4.09,4.09,0,0,1,0-7.09l20.34-11.75Zm-19.2,35.71,13.35-25-11.34,6.55-17,9.83Zm-21.81,25.43v15.49L26,1430.88l-14.33-8.27ZM31.42,1434l-12.68,23.8,9.92-5.73,17-9.83Zm21.06-25.86v-13.64L38.91,1420l13.57,7.84Z"/><path d="M52.64,1312.92a4.1,4.1,0,0,1,6.15,3.55v47a4.1,4.1,0,0,1-6.15,3.54l-16.7-9.64-1.55,2.91,17.76,10.26a4.09,4.09,0,0,1,0,7.09l-20.34,11.74L11.47,1401.1a4.1,4.1,0,0,1-6.14-3.55v-47a4.09,4.09,0,0,1,6.14-3.54l17.46,10.07,1.55-2.9L12,1343.5a4.09,4.09,0,0,1,0-7.09l20.34-11.74Zm-19.2,35.71,13.35-25.05-11.34,6.55-17,9.83Zm-21.81,25.43v15.49L26,1362.67l-14.33-8.27Zm19.79-8.23-12.68,23.79,9.92-5.73,17-9.83ZM52.48,1340v-13.64l-13.57,25.46,13.57,7.84Z"/><path d="M45.69,1305.85l-17,9.83-9.92,5.73,8.31-15.58H19.9l-8.27,15.51v-15.51H5.33v23.51a4.09,4.09,0,0,0,6.14,3.55l20.34-11.74,20.34-11.75a4.06,4.06,0,0,0,2.05-3.55v0H45.64Z"/></g><g class="cls-12"><g class="cls-13"><path class="cls-14" d="M-126.39-15.94v.72h0a40.59,40.59,0,0,1,14.26,2.62L317.19,148,746.51,308.55a40.41,40.41,0,0,1,11.55,69L404.33,669.1,50.61,960.62a39.78,39.78,0,0,1-25.54,9.26,40.41,40.41,0,0,1-40-33.78L-90.55,484l-75.6-452.09A39.71,39.71,0,0,1-157.23-.77a40.44,40.44,0,0,1,30.84-14.45v-.72m0,0c-24.21,0-44.83,21.87-40.47,48l75.6,452.09,75.6,452.1a41.12,41.12,0,0,0,40.73,34.39,40.59,40.59,0,0,0,26-9.44L404.79,669.66,758.52,378.14C783,358,776.42,319,746.77,307.87L317.44,147.3-111.88-13.28a41.33,41.33,0,0,0-14.51-2.66Z"/><path class="cls-14" d="M291,3.81v.72h0a30.26,30.26,0,0,1,10.65,2L624.46,127.21,947.25,247.94a30.21,30.21,0,0,1,8.63,51.6l-266,219.18L424,737.89a29.74,29.74,0,0,1-19.09,6.93A30.2,30.2,0,0,1,375,719.57L318.14,379.66,261.31,39.76A29.62,29.62,0,0,1,268,15.33a30.21,30.21,0,0,1,23-10.8V3.81m0,0a31,31,0,0,0-30.42,36.06l56.84,339.91,56.84,339.91a30.91,30.91,0,0,0,30.62,25.85,30.48,30.48,0,0,0,19.55-7.09l266-219.18,266-219.17a30.93,30.93,0,0,0-8.84-52.83L624.71,126.54,301.93,5.81a30.83,30.83,0,0,0-10.92-2Z"/><path class="cls-14" d="M1092.93,346.78v.73a46.1,46.1,0,0,1,28.51,9.91,44.51,44.51,0,0,1,16.29,27.12l95.18,505.13,95.18,505.12a44.54,44.54,0,0,1-9.57,37.29,45.3,45.3,0,0,1-34.91,16.58,45.76,45.76,0,0,1-15.17-2.62l-485-170.13-485-170.14a45.4,45.4,0,0,1-14.56-77.28l389.86-335,389.87-335a44.59,44.59,0,0,1,29.4-11v-.73m0,0A45.48,45.48,0,0,0,1063.06,358L673.19,693l-389.86,335c-26.93,23.14-18.71,66.76,14.8,78.51l485,170.14,485,170.13a46.43,46.43,0,0,0,15.41,2.67c27.55,0,50.75-25.24,45.19-54.73l-95.18-505.13-95.18-505.12a46.07,46.07,0,0,0-45.51-37.63Z"/><path class="cls-14" d="M875.84,444.18v.72a36.74,36.74,0,0,1,22.78,8,35.89,35.89,0,0,1,13,21.82l76.53,409.9,76.53,409.9a37,37,0,0,1-35.94,43.79,36.31,36.31,0,0,1-12-2.06L625.68,1200.07,234.62,1063.94a36,36,0,0,1-23.71-27.52,36.67,36.67,0,0,1,12.05-35L537.49,727.7,852,453.94a35.84,35.84,0,0,1,23.81-9v-.72m0,0a36.67,36.67,0,0,0-24.28,9.21L537,727.15,222.49,1000.91c-21.73,18.91-15.12,54.31,11.89,63.71l391.06,136.14,391.06,136.13a37,37,0,0,0,12.24,2.1,37.69,37.69,0,0,0,36.65-44.65L988.86,884.45l-76.53-409.9a37,37,0,0,0-36.5-30.37Z"/></g></g></g><g id="Eight_Ball" data-name="Eight Ball"><path class="cls-15" d="M1036.22,1026.1v.64h.68Z"/><path class="cls-15" d="M210,1026.74v-.64l-.68.64Z"/><path class="cls-15" d="M712,858.82l-87.74-8.05v-.2l-1.14.1-1.13-.1v.2L499.9,862S210,907,243.81,1026.74H1002.4C1018.45,916.49,712,858.82,712,858.82Z"/><rect class="cls-15" x="309.26" y="999.48" width="615.49" height="474.68"/><path class="cls-15" d="M658.21,757.14s7.92,43.06,28.94,76.29C702.8,858.17,767,881.7,790.26,891.52L618,1005.42,427.08,902.07S504,879.64,514.6,815Z"/><path class="cls-16" d="M444.67,868.86a282.6,282.6,0,1,1,240.21-133.6,282.5,282.5,0,0,1-240.21,133.6Z"/><path d="M444.67,312.84C595.61,312.84,718,435.22,718,586.16A273.17,273.17,0,0,1,444.67,859.49c-150.94,0-273.32-122.37-273.32-273.33A273.75,273.75,0,0,1,180,517.53C210.5,399.79,317.43,312.84,444.67,312.84m0-18.73a291.23,291.23,0,1,0,113.68,23,291.34,291.34,0,0,0-113.68-23Z"/><path class="cls-17" d="M718,586.16c0,151-122.37,273.33-273.31,273.33a273.5,273.5,0,0,1-263.3-199.83,271.94,271.94,0,0,0,130.79,33.27c151,0,273.32-122.37,273.32-273.31a274.11,274.11,0,0,0-10-73.5A273.29,273.29,0,0,1,718,586.16Z"/><path class="cls-17" d="M718,586.16c0,151-122.37,273.33-273.31,273.33a272.36,272.36,0,0,1-187-74,321.82,321.82,0,0,0,99.6,15.68c178.14,0,322.54-144.4,322.54-322.54a328.9,328.9,0,0,0-1.88-35A271.93,271.93,0,0,1,718,586.16Z"/><path class="cls-18" d="M444.67,431.34A154.64,154.64,0,0,0,289.85,586.16C289.85,671.54,359.3,741,444.67,741A154.75,154.75,0,0,0,599.49,586.16C599.49,500.79,530,431.34,444.67,431.34Z"/><path class="cls-19" d="M444.67,404.75A181.44,181.44,0,1,0,626.08,586.16,181.48,181.48,0,0,0,444.67,404.75Zm78,332.71a168.2,168.2,0,0,1-78,18.88c-93.83,0-170.17-76.34-170.17-170.18A170,170,0,0,1,444.67,416c93.83,0,170.17,76.34,170.17,170.17A169.69,169.69,0,0,1,522.64,737.46Z"/><path class="cls-20" d="M444.67,426.05A159.93,159.93,0,0,0,284.56,586.16c0,88.29,71.83,160.12,160.11,160.12A160,160,0,0,0,604.78,586.16C604.78,497.88,533,426.05,444.67,426.05Zm70.94,297.77A153,153,0,0,1,444.67,741c-85.37,0-154.82-69.46-154.82-154.84A154.64,154.64,0,0,1,444.67,431.34c85.37,0,154.82,69.45,154.82,154.82A154.39,154.39,0,0,1,515.61,723.82Z"/><path class="cls-21" d="M569.91,829.16a272,272,0,0,1-125.24,30.33c-150.94,0-273.32-122.37-273.32-273.33A273.75,273.75,0,0,1,180,517.53c.13,10,.71,20,1.78,30.12,18.76,177.15,177.56,305.57,354.7,286.81A319.07,319.07,0,0,0,569.91,829.16Z"/><path class="cls-16" d="M327.16,1487.74c-158.84-175.93-230.19-329-200.92-431a142.51,142.51,0,0,1,43.59-68.61c21.46-18.91,49.88-33.5,84.46-43.34a100,100,0,0,1,27.14-4.17c18.7,0,33.66,6.91,44.48,20.55,33.79,42.61,13.38,139,10.9,150-1,37.68,31.67,89.58,35.24,95.14,53.43,61.11,74.72,118.64,63.27,171-16.49,75.43-94.48,111.08-97.79,112.56l-6,2.68Z"/><path d="M281.43,949.65c83.91,0,46.4,160.39,46.4,160.39-1.68,43.14,37,101.75,37,101.75,161.3,183.93-31,269.91-31,269.91-232.11-257.09-280-470.45-77.09-528.23a90.56,90.56,0,0,1,24.67-3.82m0-18a109.28,109.28,0,0,0-29.61,4.51c-35.88,10.22-65.47,25.44-87.95,45.25a151.5,151.5,0,0,0-46.29,72.88c-15.38,53.58-4.67,119.85,31.84,197,35,74,92.59,155.62,171.06,242.53l8.77,9.72,12-5.34c3.48-1.56,85.46-39,102.91-118.87,12.07-55.18-9.76-115.2-64.87-178.4-10.11-15.64-33.77-58.78-33.45-88.62a398.93,398.93,0,0,0,7.83-57.24c2.74-45.24-4.21-78.69-20.66-99.43-12.44-15.68-30.26-24-51.54-24Z"/><path class="cls-16" d="M899.11,1444.71a93.38,93.38,0,0,1-49-14c-28.66-17.64-48.74-42.85-59.68-74.94-13.18-38.68-12.88-87.42.9-144.87.61-7,5.66-71.63-13.87-106.24A400.12,400.12,0,0,1,740,1052.26c-24.63-41.37-32.86-75.23-24.47-100.63,7.3-22.09,26.56-36.66,57.25-43.3a273.59,273.59,0,0,1,57.36-6.56c53.62,0,96.6,19.28,127.73,57.32,30.68,37.48,49,92.4,54.49,163.23,5.34,69.07-1.61,152-20.66,246.51A94.77,94.77,0,0,1,899.11,1444.71Z"/><path d="M830.12,911.32c158.8,0,208.11,178.18,152.19,455.62a84.88,84.88,0,0,1-83.2,68.21,83.46,83.46,0,0,1-44-12.55c-46.38-28.55-83.86-87.76-54.33-210.11,0,0,7.43-74-15.49-113.35,0,0-135.41-154.47-10.56-181.47a263.45,263.45,0,0,1,55.34-6.35m0-19.11v0h0A283.19,283.19,0,0,0,770.74,899c-17,3.67-31,9.76-41.77,18.09a65.34,65.34,0,0,0-22.53,31.56c-9.3,28.14-.78,64.65,25.33,108.5a416,416,0,0,0,37.84,53c7.35,13.51,11.83,34.63,13,61.23a316.49,316.49,0,0,1-.67,38c-14,58.95-14.21,109.25-.48,149.51,11.67,34.24,33.11,61.16,63.71,80a103,103,0,0,0,54,15.38,104,104,0,0,0,101.94-83.55c19.22-95.36,26.22-179.18,20.81-249.13-5.63-72.82-24.68-129.53-56.62-168.55a161,161,0,0,0-58.43-45.32c-22.69-10.28-48.49-15.5-76.66-15.5Z"/><path class="cls-22" d="M241,873.08l15,12.2L201.67,782.54l-40.8-13.27a109,109,0,0,0,10-23c29.41.91,42.24-25.19,42.24-25.19-5.81-2.36-48.25-2.31-50.76-2.24s-51.1,34.82-51.1,34.82c-10.34,16.68-1.72,24.36-1.72,24.36,13.57,21,154.52,116.61,154.52,116.61Z"/><path class="cls-19" d="M241,873.08c2.42,2,4.88,3.89,7.47,5.82s5.26,3.92,7.89,5.94l-.86.71-14.2-25.36-14.1-25.41-14-25.47-13.94-25.49,1.57,1.32-40.94-12.82-3.78-1.18,2-3.53c1-1.74,2-3.5,2.86-5.32s1.74-3.66,2.53-5.53,1.54-3.77,2.23-5.69,1.34-3.88,1.88-5.73l.72-2.5,2.64,0a42.76,42.76,0,0,0,11.84-1.4,41.38,41.38,0,0,0,5.6-2,44.73,44.73,0,0,0,5.25-2.8,47.11,47.11,0,0,0,9.19-7.68,50.14,50.14,0,0,0,3.84-4.65c.6-.81,1.16-1.64,1.7-2.48.26-.42.52-.84.77-1.26s.5-.89.65-1.18l1.91,5-.49-.11-.24-.07a1.21,1.21,0,0,0-.3-.07l-1.54-.24c-1.07-.14-2.2-.25-3.32-.36-2.27-.18-4.58-.32-6.89-.44-4.64-.22-9.31-.35-14-.44s-9.36-.14-14-.15h-8.47a2.14,2.14,0,0,0,.54,0,1.34,1.34,0,0,0,.27-.07l.13-.06s0,0,0,0l-.1,0-.19.09-.65.36c-.92.54-1.88,1.14-2.85,1.76-7.77,5-15.5,10.39-23.2,15.72s-15.38,10.77-23,16.2l1-1-1.5,2.61c-.45.89-.85,1.78-1.28,2.67A24.13,24.13,0,0,0,110,766.3a14,14,0,0,0,0,5.17,10,10,0,0,0,.79,2.27,6.23,6.23,0,0,0,.56,1c.11.15.21.31.31.43s.11.14.14.17.12.13,0,0l.62.73c.53.68,1,1.36,1.55,2.06l1.88,2.1c1.37,1.38,2.68,2.79,4.16,4.12l2.16,2,2.23,2c1.48,1.33,3,2.63,4.52,3.93,6.1,5.19,12.38,10.22,18.71,15.19,12.64,10,25.52,19.71,38.49,29.32s26,19.21,39,28.68,26.17,19,39.28,28.39l-1.09,1.36c-3.86-3.78-7.73-7.63-11.4-11.39S244.71,876.57,241,873.08Zm0,0c4,3.7,8,7.33,12,10.75s7.83,6.75,11.67,10.16l-1.09,1.37c-13.61-8.75-27.05-17.72-40.5-26.71s-26.74-18.19-40-27.5-26.35-18.78-39.3-28.54c-6.44-4.93-12.85-9.91-19.13-15.11-1.57-1.3-3.14-2.61-4.68-4l-2.32-2-2.29-2.09c-1.54-1.36-3-2.87-4.51-4.34l-2.18-2.4c-.73-.85-1.43-1.83-2.13-2.75l.62.72c-.29-.27-.38-.37-.54-.54s-.26-.3-.39-.45a10.36,10.36,0,0,1-.67-.89,13.87,13.87,0,0,1-1.1-1.83,17.64,17.64,0,0,1-1.41-3.89,20.63,20.63,0,0,1-.23-7.85,31.73,31.73,0,0,1,2-7.16c.51-1.08,1-2.18,1.54-3.25l1.75-3.08.33-.58.65-.47q11.47-8.23,23-16.35c7.73-5.4,15.39-10.8,23.4-16,1-.65,2.05-1.29,3.16-1.93l.9-.5.59-.28.31-.14.09,0,.24-.09.48-.14a8.13,8.13,0,0,1,1-.15h1.62l7.09,0q7.08.06,14.16.22c4.72.12,9.44.27,14.19.51,2.38.14,4.77.29,7.17.5,1.22.12,2.43.25,3.69.42l1.94.32a3.17,3.17,0,0,1,.56.12l.6.17,1.21.36,3.89,1.16-2,3.86c-.34.66-.61,1.12-.92,1.65s-.6,1-.92,1.49c-.63,1-1.28,1.94-2,2.86a57.69,57.69,0,0,1-4.43,5.31,50.13,50.13,0,0,1-16.95,12,48.77,48.77,0,0,1-6.63,2.24,49.71,49.71,0,0,1-13.82,1.45l3.36-2.46c-.66,2.17-1.36,4.15-2.12,6.18s-1.57,4-2.44,6-1.79,3.93-2.77,5.86-2.06,3.82-3.17,5.7l-1.76-4.71L202.51,780l1.08.36.49,1,13.22,25.87,13.16,25.91,13.06,26,13,26,1.27,2.54-2.13-1.84c-2.37-2-4.7-4.11-7.12-6.25S243.55,875.17,241,873.08Z"/><path class="cls-22" d="M210.66,745.35c26.67,9.16,43.47-9.38,43.47-9.38-4.85-3.66-43.6-15.71-45.91-16.37s-53.43,15-53.43,15c-12.68,11.23-6.31,20.22-6.31,20.22,8.3,21.74,92.5,118.23,92.5,118.23L219.7,834.8l10.62-21.32,5.34-33.17-34.41-22.48A86.16,86.16,0,0,0,210.66,745.35Z"/><path class="cls-19" d="M210.66,745.35a47.51,47.51,0,0,0,11.48,1.95,41.1,41.1,0,0,0,11.45-1.17,40.46,40.46,0,0,0,10.55-4.31,41.62,41.62,0,0,0,4.71-3.16,33.12,33.12,0,0,0,4.12-3.74l.21,2.3a18.67,18.67,0,0,0-2.61-1.29c-1-.41-2-.79-3-1.17-2-.75-4.05-1.45-6.1-2.14-4.09-1.39-8.22-2.71-12.36-4s-8.29-2.54-12.45-3.77L210.46,723l-1.56-.46-.77-.22-.38-.11-.18-.05s-.09,0,0,0a1.75,1.75,0,0,0,.33.06c.26,0,.17,0,.11,0l-.26,0-.69.13-1.49.35c-4.1,1-8.28,2.29-12.42,3.52l-12.45,3.81-24.86,7.77,1.25-.7a28,28,0,0,0-3.51,3.75,16.82,16.82,0,0,0-2.36,4.12,10.18,10.18,0,0,0-.73,4.21,8.2,8.2,0,0,0,.33,2,8.33,8.33,0,0,0,.34.92c.06.14.13.28.2.41l.09.16,0,.07,0,0,.43.8a32.63,32.63,0,0,0,1.86,3.76c.7,1.29,1.49,2.59,2.29,3.88,1.61,2.57,3.34,5.13,5.11,7.66,3.54,5.07,7.26,10.06,11,15,7.57,9.9,15.43,19.62,23.27,29.36s15.85,19.35,23.9,28.93,16.06,19.21,24.19,28.7L238,874.71l-10.5-19.21-10.41-19.27-.76-1.4.69-1.34,11-21.16-.24.74L233.84,780l.81,1.84-16.9-11.71-16.84-11.8-.61-.43.49-.51c1.81-1.85,3.55-3.78,5.2-5.8S209.21,747.52,210.66,745.35Zm0,0c-1.27,2.28-2.68,4.48-4.18,6.64s-3.08,4.25-4.78,6.26l-.11-.94L219.15,768l17.51,10.77,1,.61-.17,1.23-4.62,33.28,0,.34-.19.4-10.29,21.49-.06-2.75,10.86,19,10.77,19.07,15.79,27.94-21.26-24.1c-8.31-9.42-16.57-18.85-24.7-28.41S197.56,827.69,189.6,818s-15.79-19.54-23.39-29.59c-3.79-5-7.53-10.11-11.14-15.33-1.81-2.61-3.57-5.26-5.27-8-.85-1.38-1.68-2.77-2.47-4.23a38.68,38.68,0,0,1-2.21-4.7l.43.8-.22-.33-.15-.25-.25-.46c-.15-.3-.29-.6-.41-.9a12,12,0,0,1-.62-1.8,15,15,0,0,1-.55-3.68,17.29,17.29,0,0,1,1.32-7,23.9,23.9,0,0,1,3.44-5.78,35.08,35.08,0,0,1,4.44-4.58l.57-.51.68-.2c8.36-2.45,16.7-4.94,25.1-7.25l12.61-3.44c4.23-1.12,8.42-2.24,12.79-3.2l1.68-.34.92-.15c.18,0,.33,0,.55-.06a4.18,4.18,0,0,1,.92,0,4.68,4.68,0,0,1,.54.09l.14,0,.21.07.4.13.79.25L212,718l6.2,2.1q6.18,2.11,12.34,4.32c4.1,1.48,8.2,3,12.28,4.57,2,.8,4.06,1.63,6.09,2.51,1,.45,2,.9,3,1.4a20.13,20.13,0,0,1,3.12,1.79l1.46,1.07L255.29,737a35.74,35.74,0,0,1-4.77,3.9,44,44,0,0,1-5.2,3.09A41.52,41.52,0,0,1,234,747.83a40.15,40.15,0,0,1-11.88.39A47.27,47.27,0,0,1,210.66,745.35Z"/><path class="cls-22" d="M220.17,851.33a4.18,4.18,0,0,1-.17-.42Z"/><path class="cls-19" d="M220.17,851.33a1.11,1.11,0,0,1,0,.84,1.23,1.23,0,0,1-.88.68,2.8,2.8,0,0,1-1.51-.08,7.87,7.87,0,0,1-1.38-.6l7.12-2.64a7.17,7.17,0,0,1-.65,1.34,2.85,2.85,0,0,1-1.06,1,1.27,1.27,0,0,1-1.08.08A1.05,1.05,0,0,1,220.17,851.33Zm0,0a1.73,1.73,0,0,0-.67-.82,1.39,1.39,0,0,0-1.16-.13,2.52,2.52,0,0,0-1.14.78,6.19,6.19,0,0,0-.74,1.12l7.12-2.63a6,6,0,0,0-1.3-.39,2.44,2.44,0,0,0-1.42.13,1.35,1.35,0,0,0-.8.89A1.64,1.64,0,0,0,220.17,851.33Z"/><path class="cls-16" d="M491.31,920l-11.66-34.39c-8.25-24.41-27.31-44.31-52.28-54.27-67-26.74-160-33.67-160-33.67l-11.6-8.83-1.07.38-21.64-33.32a107.35,107.35,0,0,0,15.38-8.47c21.51,18.85,47.11,7.34,47.11,7.34-2.93-5.35-34.8-31.55-36.73-33s-59.64-5.65-59.64-5.65c-18,6-16.18,17.09-16.18,17.09-2.56,23.07,34,110.54,37,117.72l.17.42,0,0C264,915,292.39,905.74,310.54,913.9c15.46,7,33.3,42.88,38.27,53.43,27.61,125.05-57.75,374.05-57.75,374.05-20,200.47,100.77,169.16,100.77,169.16,183.43-53,104.11-562.76,99.82-589.47v0l-.18-1.09Z"/><path class="cls-19" d="M513.15,1135.88c-1.39-36.18-4-72.3-7.61-108.31S497.4,955.65,491.47,920h0l-.16.06.16-.06c2.69,17.89,4.92,35.84,6.95,53.8s3.85,36,5.4,54c3.11,36,5.27,72.13,6.19,108.25q.69,27.09.39,54.19t-1.8,54.13c-2.12,36-6.09,72-13.35,107.23-.85,4.42-1.94,8.78-2.91,13.17s-2.19,8.72-3.28,13.07c-2.42,8.65-4.92,17.28-7.93,25.73s-6.33,16.76-9.93,24.94l-2,4.17a9.77,9.77,0,0,1,6.23.66l1.14-2.4c3.63-8.39,7.1-16.85,10-25.52s5.48-17.38,7.87-26.16c1.08-4.42,2.23-8.83,3.23-13.26s2-8.87,2.85-13.34c7.11-35.67,10.67-71.87,12.48-108.06S514.56,1172.06,513.15,1135.88Z"/><path class="cls-19" d="M480.43,887a88.88,88.88,0,0,0-16.68-30.42,93.59,93.59,0,0,0-27.11-21.85l-3.92-2c-1.32-.63-2.67-1.18-4-1.78-2.69-1.14-5.42-2.09-8.13-3.15-5.4-2.16-10.94-3.9-16.45-5.75-2.74-1-5.55-1.73-8.33-2.57l-8.36-2.45L379,814.82l-4.21-1.11-4.23-1-8.48-2c-2.82-.66-5.67-1.23-8.51-1.84-5.67-1.27-11.38-2.32-17.07-3.43-22.65-4.17-45.42-7.5-68.41-9.6L257,787.26l-.85-.65-.59.2-19.26-30c1.93-.92,3.85-1.87,5.72-2.89q2-1.07,3.89-2.22c.81-.48,1.6-1,2.4-1.47a44.9,44.9,0,0,0,9.65,6.12,48.09,48.09,0,0,0,6.17,2.41,49.29,49.29,0,0,0,6.47,1.37,49.92,49.92,0,0,0,13.15.16c1.08-.17,2.17-.31,3.25-.5s2.15-.41,3.21-.69,2.13-.55,3.18-.89a34.09,34.09,0,0,0,3.21-1.16l2.77-1.15-1.59-2.36c-.4-.59-.85-1.27-1.26-1.78l-1.22-1.39c-.82-.88-1.64-1.71-2.47-2.55-1.65-1.63-3.33-3.21-5-4.78C284.4,740,281,737,277.5,734s-6.94-6-10.44-8.9l-5.28-4.39-.68-.55-.35-.28-.17-.14-.09-.07a3.28,3.28,0,0,0-.31-.2,5,5,0,0,0-.7-.34l-.18-.07-.07,0-.15,0-.57-.15-1-.19c-1.21-.22-2.37-.38-3.52-.53-9.17-1.13-18.23-1.89-27.34-2.7s-18.2-1.51-27.3-2.2l-.63,0-.51.19-3.16,1.18c-1,.45-2.07,1-3.1,1.44a29.62,29.62,0,0,0-5.81,4,19.52,19.52,0,0,0-4.57,5.82,16.75,16.75,0,0,0-1.3,3.66,12.64,12.64,0,0,0-.3,2c0,.34,0,.68,0,1a5.14,5.14,0,0,0,0,.55c0,.12,0,.21,0,.33-.38,5.73.53,10.83,1.5,15.92s2.33,10.29,3.74,15.33c2.82,10.08,6.07,20,9.48,29.83s7.05,19.58,10.79,29.28q2.81,7.27,5.7,14.51l2.92,7.23,2.93,7.14.1.23.08.16,0,.05.09.16.09.13c8.68,12.45,18.13,24.5,29.39,35l1,1,1.11.94,2.21,1.87,2.22,1.86a26.62,26.62,0,0,0,2.28,1.81l4.73,3.4a27,27,0,0,0,2.45,1.59l2.5,1.51a85.84,85.84,0,0,0,21.56,9c7.46,2.1,15.13,3,21.33,5.53a13.82,13.82,0,0,1,2.15,1l1,.62,1,.71a34.26,34.26,0,0,1,3.87,3.34,72.53,72.53,0,0,1,7,8.11,176.33,176.33,0,0,1,12,18.51c3.58,6.31,6.94,12.8,10.05,19.36,3.27,15.13,4.64,30.71,5.08,46.3a467.34,467.34,0,0,1-1.27,47.31c-1.24,15.76-3,31.49-5.24,47.18s-5,31.3-7.94,46.88q-6.63,34.14-15,67.95c.82,2.18,1.59,4.37,2.28,6.59l4.14-1.25c6-23.8,11.36-47.75,16-71.87q4.46-23.52,7.93-47.24c2.2-15.83,4-31.73,5.23-47.69a478.5,478.5,0,0,0,1.23-48.07c-.49-16.06-1.92-32.18-5.4-48.05l-.09-.4-.18-.37q-4.87-10.32-10.52-20.24a175.39,175.39,0,0,0-12.54-19.27,79.37,79.37,0,0,0-7.74-8.88,42.16,42.16,0,0,0-4.67-4l-1.31-.91-1.38-.84a20,20,0,0,0-2.95-1.38l-2.9-1.1-2.87-.82c-1-.29-1.91-.49-2.85-.71l-2.81-.63c-1.83-.4-3.7-.77-5.48-1.19l-2.69-.61-2.64-.69c-14-3.58-26.56-11.28-37.28-21.26s-19.89-21.47-28.37-33.53l-2.84-6.84-2.94-7.18q-2.91-7.19-5.72-14.42-5.64-14.44-10.84-29c-3.45-9.73-6.73-19.52-9.56-29.38-1.42-4.94-2.71-9.9-3.74-14.86s-1.82-10-1.49-14.49l0-.81c0,.08,0-.05,0-.1s0-.16,0-.24a5.15,5.15,0,0,1,0-.54,8,8,0,0,1,.17-1.15,10.62,10.62,0,0,1,.81-2.29,13.45,13.45,0,0,1,3.18-4.07,23.65,23.65,0,0,1,4.59-3.17c.88-.41,1.74-.85,2.63-1.24l2.26-.87q13.3.93,26.61,2c9.07.74,18.19,1.45,27.13,2.49,1.1.14,2.21.29,3.24.46l.72.14.16,0,.24.18.65.53,5.27,4.32q5.25,4.35,10.44,8.77c3.45,2.95,6.88,5.93,10.24,9,1.67,1.52,3.32,3.05,4.93,4.6.71.71,1.42,1.42,2.1,2.14-.78.24-1.58.47-2.36.67-1,.27-1.94.43-2.91.65l-2.95.48a44.58,44.58,0,0,1-11.88,0,40.94,40.94,0,0,1-21.3-9.67l-1.4-1.12-1.4,1c-1.13.77-2.37,1.56-3.58,2.3s-2.47,1.47-3.72,2.16c-2.51,1.4-5.07,2.7-7.67,3.88L229.81,755l1.41,2.14L253,790.33l.88,1.34,1.48-.53,0,0,10.77,8.11.46.35.57,0c23,1.85,46,4.85,68.76,8.76,5.69,1,11.39,2,17,3.19,2.83.58,5.67,1.1,8.5,1.73l8.46,1.89,4.23.95,4.2,1.06,8.41,2.1,8.35,2.34c2.78.8,5.58,1.51,8.32,2.44,5.49,1.77,11,3.43,16.42,5.51,2.7,1,5.46,1.93,8.12,3,1.31.57,2.65,1.09,3.95,1.69l3.88,1.89a92.23,92.23,0,0,1,27,21.16,88.14,88.14,0,0,1,17,29.86L491.31,920Z"/><path class="cls-19" d="M257.27,724l-.12-.11.08.06.1.08Z"/><path class="cls-16" d="M866.85,1469.59a10.18,10.18,0,0,1,6.79.14c12,4.09,25.76,3.33,38.83,1.43a154.81,154.81,0,0,0,38.23-10.35c12.35-5.3,20.12-11.46,27.56-22.92,18-27.72,14.79-62.15,12.55-93.54-.45-6.25,3.51-9.76,8.22-10.58-.58-2.5-1.2-5-1.87-7.61h0s-188.52-180.45-314.63-309.81c-12.15-12.46-31.67-39.4-31.44-41,0,0-72.26-141.15-230.83-150l-94.37-26.76s-16.08,11.49,27.68,42.44h0l-49.2-9.3s-14.5,28.77,25.75,39.33l-4.11-.34s-36,10.85.17,25S449.33,934.9,449.33,934.9a168.71,168.71,0,0,0,17,37.55c7.18,26.18,38.92,59.43,113.77,100.62h0s74.18,214,283.08,395.55C863.21,1468.62,864.51,1469,866.85,1469.59Z"/><path class="cls-19" d="M863.41,1466.43a1065.2,1065.2,0,0,1-86.07-85.25,1098.53,1098.53,0,0,1-76.56-95.47,1078.48,1078.48,0,0,1-65.36-103.39q-14.83-26.74-28-54.36-6.57-13.79-12.63-27.81-3-7-5.86-14.09l-2.79-7.08-1-2.74a46.72,46.72,0,0,0,7.2,2c1.27.24,2.56.4,3.84.56s2.59.22,3.9.21a36.74,36.74,0,0,0,7.76-.7,30.12,30.12,0,0,0,13.93-6.38,118.56,118.56,0,0,1-14.41.44q-3.46-.13-6.85-.55c-2.27-.26-4.52-.6-6.77-1-4.5-.83-9-2-13.52-3.27-1.86-.52-3.72-1.08-5.6-1.64-8.76-5-17.42-10.11-25.91-15.49-10.83-6.88-21.43-14.1-31.52-21.94A215.35,215.35,0,0,1,489,1002.82,109.9,109.9,0,0,1,477.65,988a63,63,0,0,1-7.55-16.54l-.14-.5-.29-.5c-1.72-2.88-3.41-5.78-5-8.77s-3-6-4.44-9.08-2.7-6.18-3.91-9.32-2.36-6.36-3.26-9.42l-.63-2.09-2.06-.6c-27.47-8-54.9-16.24-82.11-25-13.59-4.41-27.18-8.92-40.39-14a56.32,56.32,0,0,1-9-4.3,18.56,18.56,0,0,1-3.48-2.66,6.2,6.2,0,0,1-1-1.29,2.2,2.2,0,0,1-.29-.85,1.37,1.37,0,0,1,.15-.72,4.68,4.68,0,0,1,.81-1.17,14.7,14.7,0,0,1,3.29-2.6,41.16,41.16,0,0,1,8.14-3.69c.42,0,.84.08,1.26.09l2.06.1,8.24.41c9.73,1.48,19.42,3,29.07,4.71,16,2.84,31.94,6.05,47.68,9.87,3.92,1,7.86,1.92,11.75,3s7.79,2.17,11.69,3.27q11.61,3.45,23,7.51c3.78,1.42,7.58,2.82,11.31,4.38,1.87.77,3.79,1.46,5.62,2.31l5.56,2.47c7.4,3.35,14.6,7.13,21.81,11.14a143.1,143.1,0,0,0-19.74-15,198.91,198.91,0,0,0-21.94-11.73,240.51,240.51,0,0,0-23.14-9.12c-7.87-2.64-15.84-4.88-23.88-6.88A339.08,339.08,0,0,0,368,873.33c-6.28-.58-12.58-1-18.88-1.27l-18-4.8a58.07,58.07,0,0,1-12-4.48,28.53,28.53,0,0,1-9.33-7.45,18.8,18.8,0,0,1-4-10.47,22.68,22.68,0,0,1,.37-5.85,24,24,0,0,1,.68-2.78l46,8.66,17.39,3.28-.35-.25q17.26,4.19,34.64,7.9c14.42,3.11,28.9,5.95,43.38,8.7l21.77,4c7.29,1.26,14.5,2.64,21.81,4.09-3.35-1.58-6.75-3.18-10.24-4.46-1.73-.69-3.47-1.33-5.22-2s-3.51-1.21-5.26-1.82c-7-2.42-14.14-4.52-21.27-6.57-14.26-4-28.65-7.47-43.11-10.6s-29-5.82-43.6-8.15c-2.28-.36-4.57-.71-6.85-1l-.12-.08c-3.72-2.66-7.38-5.4-10.88-8.28a97.36,97.36,0,0,1-9.81-9.17A38.5,38.5,0,0,1,328,810.09a16.13,16.13,0,0,1-.88-2.65,10.49,10.49,0,0,1-.22-2.44,5.55,5.55,0,0,1,.46-2l92,25.89.39.11.4,0a276.39,276.39,0,0,1,35.12,4.24,258.9,258.9,0,0,1,34.21,9,267.17,267.17,0,0,1,63.32,31.36,306.62,306.62,0,0,1,53.81,46.12A329.81,329.81,0,0,1,629.27,947q5.29,7.14,10.19,14.56c3.16,4.84,6.25,9.84,8.94,14.81a1,1,0,0,0,0,.12c.06.17.13.37.18.47.11.26.21.43.3.62.19.36.37.66.55,1,.36.6.72,1.17,1.08,1.73.73,1.11,1.46,2.19,2.21,3.26,1.49,2.14,3,4.24,4.54,6.33q4.61,6.26,9.47,12.3c3.24,4,6.55,8,10,11.9,1.73,1.93,3.6,3.87,5.39,5.67l5.43,5.48q21.64,22,43.52,43.72L775,1112.35q15.54,15.29,31.16,30.49c.18-.56.38-1.13.59-1.72a14.34,14.34,0,0,1,.88-1.9l-29.75-29.77-43.43-43.76q-21.61-22-43.1-44.07l-5.37-5.53c-1.82-1.85-3.51-3.63-5.19-5.54-3.35-3.79-6.58-7.74-9.74-11.75s-6.23-8.08-9.23-12.2c-1.5-2.06-3-4.14-4.42-6.23-.71-1-1.41-2.09-2.08-3.13-.34-.52-.66-1-1-1.55-.14-.24-.29-.5-.39-.7a2.3,2.3,0,0,1-.12-.25s0,0,0,0a1.13,1.13,0,0,1,.06.21,2.63,2.63,0,0,1,0,.84l-.28-1.7c-2.9-5.49-6-10.58-9.31-15.69s-6.72-10-10.29-14.9a334.23,334.23,0,0,0-23-28,313.3,313.3,0,0,0-54.64-47.44,270.5,270.5,0,0,0-64.76-32.49,266.13,266.13,0,0,0-35.12-9.37,281.11,281.11,0,0,0-35.63-4.47l-94-26.84-1.81-.52-1.45,1.09a8,8,0,0,0-.71.59c-.18.17-.35.33-.5.5-.31.33-.58.67-.85,1a12.79,12.79,0,0,0-1.27,2.2,13.31,13.31,0,0,0-1.14,4.73,18.42,18.42,0,0,0,.37,4.5,23.58,23.58,0,0,0,1.29,4,45.72,45.72,0,0,0,8.55,12.6,98.49,98.49,0,0,0,8.94,8.55l-33.25-6.31-3-.56L300.86,830c-.39.79-.59,1.31-.84,2s-.44,1.23-.63,1.85a34.61,34.61,0,0,0-.94,3.77,30.87,30.87,0,0,0-.49,7.82,26.81,26.81,0,0,0,5.6,14.79,36.36,36.36,0,0,0,11.89,9.61c.37.2.75.36,1.12.54-.82.43-1.64.88-2.46,1.38a23.14,23.14,0,0,0-5.06,4.1,12.7,12.7,0,0,0-2.16,3.28,9.63,9.63,0,0,0-.81,4.52,10.13,10.13,0,0,0,1.32,4.22,14.6,14.6,0,0,0,2.26,2.95,26.9,26.9,0,0,0,5,3.88A64.68,64.68,0,0,0,325,899.57c13.55,5.19,27.18,9.69,40.85,14.11,26.68,8.56,53.47,16.59,80.37,24.38.88,2.75,1.83,5.36,2.84,8,1.28,3.29,2.63,6.54,4.1,9.74A176.92,176.92,0,0,0,462.78,974a71.37,71.37,0,0,0,8.36,18,118.75,118.75,0,0,0,12.21,15.85,222.39,222.39,0,0,0,29.23,26.41c10.36,8,21.17,15.28,32.18,22.21,10.63,6.68,21.49,13,32.47,19l.87,2.38,1.38,3.61,2.86,7.18c1.93,4.77,3.94,9.51,6,14.22q6.15,14.13,12.84,28c8.89,18.51,18.46,36.68,28.52,54.57a1084.21,1084.21,0,0,0,66.4,103.57,1072.43,1072.43,0,0,0,77.72,95.3q20.81,22.63,42.84,44.11,20.55,20,42.24,38.69A10.23,10.23,0,0,1,863.41,1466.43Z"/><path class="cls-19" d="M855.51,1186.13a.5.5,0,0,1,0,.12l4.14,3.92Z"/><path d="M1008.56,1217.5A340.57,340.57,0,0,1,1012,1254c.59,12.17.71,24.34.46,36.51a531.5,531.5,0,0,1-6.61,72.91c-2,12.13-4.37,24.23-7.54,36.29a230,230,0,0,1-12.41,35.93,119.54,119.54,0,0,1-9.81,17.6,68.63,68.63,0,0,1-6.86,8.47,46.13,46.13,0,0,1-9.34,7.59c-.94.54-1.88,1.08-2.89,1.56-.49.25-1,.47-1.53.69l-.78.33-.6.21c-1.59.55-3.14,1.18-4.76,1.66s-3.21,1-4.84,1.43l-2.44.64-2.47.55a104.06,104.06,0,0,1-19.91,2.35,118.91,118.91,0,0,1-38.67-5.87,171,171,0,0,1-34.53-15.74,252,252,0,0,1-30.44-21.38A349.56,349.56,0,0,1,788.84,1411a543.88,543.88,0,0,1-47.45-55.29c-7.27-9.68-14.24-19.57-21-29.58-3.39-5-6.69-10.06-10-15.12s-6.42-10.22-9.57-15.36q5.4,7.26,10.9,14.42c3.66,4.78,7.35,9.54,11.12,14.23q11.26,14.1,23.15,27.63a536.44,536.44,0,0,0,50.4,51c9,7.79,18.2,15.27,27.8,22.1a243.44,243.44,0,0,0,29.87,18.33A154,154,0,0,0,886,1455.7a97.85,97.85,0,0,0,32.71,3.06,76.52,76.52,0,0,0,15.76-3l1.92-.57,1.88-.66c1.27-.41,2.5-.92,3.74-1.4s2.44-1.07,3.66-1.59l.46-.2.25-.14a5.14,5.14,0,0,0,.5-.28c.34-.19.69-.44,1-.67,2.84-2,5.85-5.72,8.43-10a95.43,95.43,0,0,0,6.91-14.39c2.06-5.13,3.89-10.49,5.53-16,.81-2.74,1.63-5.49,2.4-8.28s1.5-5.58,2.22-8.4c2.86-11.27,5.38-22.76,7.75-34.33,1.15-5.79,2.31-11.6,3.39-17.44s2.18-11.68,3.23-17.54l6.38-35.28c2.17-11.8,4.37-23.63,6.71-35.48S1005.63,1229.43,1008.56,1217.5Z"/><path class="cls-19" d="M773.32,1108.9c16.46,14.24,32.31,29.09,47.92,44.19s31,30.45,46,46.11,29.81,31.61,44.13,48c3.57,4.1,7.15,8.19,10.65,12.35s7,8.37,10.38,12.6c6.73,8.54,13.53,17.12,19.06,26.52-6.9-8.4-14.37-16.23-21.87-24.06q-5.6-5.89-11.26-11.72L907,1251.18c-15.1-15.56-30.24-31.07-45.25-46.72s-29.95-31.37-44.75-47.24S787.56,1125.36,773.32,1108.9Z"/><path d="M241.07,1382.24c7.42,7.27,14.45,14.55,21.47,21.74s13.94,14.31,20.89,21.27,13.92,13.74,21,20.26,14.19,12.72,21.49,18.37a167.61,167.61,0,0,0,22.25,14.82c7.51,4.07,15.07,7,22.43,8.18a41.59,41.59,0,0,0,10.91.19,37.59,37.59,0,0,0,5.37-1.09c.82-.21,2-.62,3-1s2.08-.73,3.11-1.14A101.72,101.72,0,0,0,416.51,1471a136.52,136.52,0,0,0,20.58-18.6,191.33,191.33,0,0,0,17.44-22.57c10.68-16,19.35-33.68,26.8-51.92a465.88,465.88,0,0,0,18.51-56.54,519.63,519.63,0,0,0,12-58.8c-.06,10.06-.65,20.12-1.52,30.15s-2,20.08-3.47,30.08A435.32,435.32,0,0,1,494,1382.34a295.18,295.18,0,0,1-23.18,57.29,201.72,201.72,0,0,1-17.18,26.56,159,159,0,0,1-22.15,23.6,135.18,135.18,0,0,1-27.58,18.5c-1.25.65-2.53,1.23-3.79,1.84s-2.47,1.14-4,1.75a64.49,64.49,0,0,1-9.11,2.93,65.81,65.81,0,0,1-19,1.71,77.08,77.08,0,0,1-18.2-3.22c-2.89-.87-5.69-1.89-8.42-3s-5.35-2.36-7.92-3.67a133.72,133.72,0,0,1-27.26-19.15c-16.15-14.46-29-31.17-39.9-48.79a255.67,255.67,0,0,1-14.52-27.35c-2.15-4.69-4.11-9.46-5.93-14.29A139.38,139.38,0,0,1,241.07,1382.24Z"/></g><g id="Triangle"><path class="cls-23" d="M421.08,534.22l74.23-24.82c7.71-2.58,15.18,3.73,13.45,11.36L492.05,594.2l-16.71,73.43A10.85,10.85,0,0,1,458,673.44l-57.52-48.62L343,576.21c-6-5.05-3.81-14.59,3.9-17.17Z"/><g class="cls-24"><path class="cls-16" d="M470.21,674.42l-60.8-51.95-68.55-58.56a9.63,9.63,0,0,0,2.09,12.3l57.52,48.61L458,673.44A10.75,10.75,0,0,0,470.21,674.42Z"/></g><g class="cls-24"><path class="cls-16" d="M466.17,675.77,483.5,597.7l19.53-88a9.64,9.64,0,0,1,5.73,11.08L492.05,594.2l-16.71,73.43A10.74,10.74,0,0,1,466.17,675.77Z"/></g><g class="cls-24"><path class="cls-16" d="M495.31,509.4l-74.23,24.82L346.85,559a10.61,10.61,0,0,0-6.93,7.06,10.6,10.6,0,0,0,9.78,1.47l74.23-24.82,74.24-24.82a10.61,10.61,0,0,0,6.92-7.06A10.59,10.59,0,0,0,495.31,509.4Z"/></g><g class="cls-25"><path class="cls-26" d="M421.08,534.22l74.23-24.82c7.71-2.58,15.18,3.73,13.45,11.36L492.05,594.2l-16.71,73.43A10.85,10.85,0,0,1,458,673.44l-57.52-48.62-57.53-48.61c-6-5.05-3.8-14.59,3.91-17.17Z"/><g class="cls-24"><path class="cls-27" d="M470.21,674.42l-60.8-51.95-68.55-58.56a9.64,9.64,0,0,0,2.08,12.3l57.53,48.61L458,673.44A10.75,10.75,0,0,0,470.21,674.42Z"/></g><g class="cls-24"><path class="cls-28" d="M466.17,675.77,483.5,597.7l19.53-88a9.64,9.64,0,0,1,5.73,11.08L492.05,594.2l-16.71,73.43A10.74,10.74,0,0,1,466.17,675.77Z"/></g><g class="cls-24"><path class="cls-29" d="M495.31,509.4l-74.23,24.82L346.85,559a10.61,10.61,0,0,0-6.93,7.06,10.6,10.6,0,0,0,9.78,1.47l74.23-24.82,74.24-24.82a10.61,10.61,0,0,0,6.92-7.06A10.59,10.59,0,0,0,495.31,509.4Z"/></g></g><g class="cls-30"><path class="cls-31" d="M452.49,567.05c-3.07-6.52-7.06-10.54-11.87-11.92s-10.82-.33-18.08,3.09c-5.19,2.44-8.8,5.83-10.73,10.09a22.71,22.71,0,0,0-1.7,11.27,7,7,0,0,0,5.58,6.32l4.79,1A12,12,0,0,0,428,586a2.18,2.18,0,0,0,1.24-2.23,2.2,2.2,0,0,0-1.73-1.88l-8.15-1.68a3.7,3.7,0,0,1-3-3.7,13,13,0,0,1,1.59-6.3,16,16,0,0,1,7.31-6.24,38.43,38.43,0,0,1,6.33-2.43,18.32,18.32,0,0,1,5.58-.55,8,8,0,0,1,5,2.15,19.89,19.89,0,0,1,4.57,6.6,14.18,14.18,0,0,1,1.38,6.57,18.09,18.09,0,0,1-1.29,6.39L444,589.66c-1,2.53-2,5-2.78,7.26a23,23,0,0,0-1.12,8.34,23.58,23.58,0,0,0,1.79,8.07,2.83,2.83,0,0,0,1.61,1.59,2.93,2.93,0,0,0,2.14,0l.14-.07a3.55,3.55,0,0,0,1.81-4.43,16.56,16.56,0,0,1-1.08-5.83,19.25,19.25,0,0,1,1.13-6.76c.81-2.18,1.75-4.52,2.78-7s2-4.9,2.84-7.1a22.55,22.55,0,0,0,1.31-8A20.62,20.62,0,0,0,452.49,567.05Z"/><path class="cls-32" d="M455.09,622.18a3.58,3.58,0,0,0-2-1.86,3.53,3.53,0,0,0-2.76.13l-2.63,1.23h0a3.64,3.64,0,0,0-1.74,4.81l.88,1.87a3.61,3.61,0,0,0,4.63,1.82l.18-.08,2.63-1.24a3.6,3.6,0,0,0,1.87-2,3.65,3.65,0,0,0-.13-2.77Z"/></g></g></g></svg>