<?xml version="1.0" encoding="utf-8"?>
<!-- Generator: Adobe Illustrator 25.2.3, SVG Export Plug-In . SVG Version: 6.00 Build 0)  -->
<svg version="1.1" xmlns="http://www.w3.org/2000/svg" xmlns:xlink="http://www.w3.org/1999/xlink" x="0px" y="0px"
	 viewBox="0 0 223.9 231" style="enable-background:new 0 0 223.9 231;" xml:space="preserve">
<style type="text/css">
	.st0{display:none;}
	.st1{display:inline;}
	.st2{fill:url(#SVGID_1_);}
	.st3{fill:url(#SVGID_2_);}
	.st4{fill:url(#SVGID_3_);}
	.st5{fill:#5E0073;}
	.st6{opacity:0.24;fill:#1D0073;}
	.st7{fill:#060026;}
	.st8{fill:#06003A;}
	.st9{fill:#DC5CFF;}
	.st10{opacity:0.42;fill:#E9E6F1;}
	.st11{fill:none;stroke:#FF2E69;stroke-width:4;stroke-miterlimit:10;}
	.st12{fill:#500A60;}
	.st13{display:inline;fill:#06003A;}
	.st14{fill:#642265;}
	.st15{display:inline;opacity:0.42;fill:#E9E6F1;}
	.st16{display:inline;opacity:0.24;fill:#1D0073;}
	.st17{fill:#FF8B69;}
	.st18{fill:#FF5CBC;}
	.st19{fill:#E8A2FF;}
	.st20{fill:#060026;stroke:#E8A2FF;stroke-width:3.7367;stroke-miterlimit:10;}
	.st21{display:inline;fill:#060026;}
	.st22{display:inline;fill:#060026;stroke:#E8A2FF;stroke-width:4.02;stroke-miterlimit:10;}
	.st23{display:inline;fill:#FF2E69;}
	.st24{display:inline;fill:#060026;stroke:#E8A2FF;stroke-width:3;stroke-miterlimit:10;}
	.st25{display:inline;opacity:0.3;fill:#1D0073;}
	.st26{display:inline;fill:#060026;stroke:#E8A2FF;stroke-width:6.2605;stroke-miterlimit:10;}
	.st27{display:inline;fill:#642265;stroke:#06003A;stroke-width:6;stroke-miterlimit:10;}
	.st28{display:inline;fill:#642265;stroke:#06003A;stroke-width:6.4278;stroke-miterlimit:10;}
	.st29{display:inline;opacity:0.32;fill:#E9E6F1;}
	.st30{display:inline;fill:#5E0073;}
	.st31{fill:url(#SVGID_4_);}
	.st32{fill:url(#SVGID_5_);}
	.st33{fill:url(#SVGID_6_);}
	.st34{opacity:0.3;fill:#1D0073;}
	.st35{opacity:0.32;fill:#E9E6F1;}
	.st36{opacity:0.85;}
	.st37{fill:url(#SVGID_7_);}
	.st38{fill:url(#SVGID_8_);}
	.st39{fill:url(#SVGID_9_);}
	.st40{fill:url(#SVGID_10_);}
</style>
<g id="Layer_2" class="st0">
	<g class="st1">
		<circle class="st7" cx="124.9" cy="166.9" r="106.5"/>
		<path class="st19" d="M231.3,166.9c0,13.9-2.7,27.9-8,40.8c-5.3,12.9-13.2,24.7-23,34.6c-9.8,9.9-21.6,17.9-34.5,23.4
			c-12.9,5.5-26.9,8.3-40.9,8.4c-14,0.1-28.1-2.6-41.1-7.9c-13-5.3-25-13.2-35-23.1c-10-9.9-18-21.9-23.5-34.9
			c-5.5-13-8.3-27.1-8.3-41.3c0-14.1,2.9-28.2,8.3-41.3c5.4-13,13.5-25,23.5-34.9c10-9.9,22-17.8,35-23.1c13-5.3,27.1-8,41.1-7.9
			c14,0.1,28,2.9,40.9,8.4c12.9,5.4,24.7,13.5,34.5,23.4c9.8,9.9,17.7,21.7,23,34.6C228.7,139,231.4,153,231.3,166.9z M231.3,166.9
			c0-13.9-2.8-27.9-8.2-40.7c-5.4-12.8-13.3-24.6-23.1-34.4c-9.9-9.8-21.7-17.6-34.6-22.8c-12.8-5.2-26.7-7.9-40.6-7.8
			c-13.8,0.1-27.6,2.9-40.3,8.3c-12.7,5.4-24.3,13.3-34,23c-9.7,9.8-17.5,21.4-22.7,34.2c-5.2,12.7-7.9,26.5-7.9,40.2
			c0,13.7,2.6,27.5,7.9,40.2c5.2,12.7,13,24.4,22.7,34.2c9.7,9.8,21.3,17.7,34,23c12.7,5.4,26.5,8.2,40.3,8.3
			c13.8,0.1,27.7-2.5,40.6-7.8c12.8-5.2,24.7-13,34.6-22.8c9.9-9.8,17.8-21.6,23.1-34.4C228.5,194.8,231.3,180.9,231.3,166.9z"/>
	</g>
	<g class="st1">
		<path class="st5" d="M100.9,624C-58,448.1-129.3,295-100.1,193c7.7-26.8,22.4-49.9,43.6-68.6C-35,105.5-6.6,90.9,28,81.1
			c9.7-2.8,18.9-4.2,27.1-4.2c18.7,0,33.7,6.9,44.5,20.6c33.8,42.6,13.4,139,10.9,150c-1,37.7,31.7,89.6,35.2,95.1
			c53.4,61.1,74.7,118.6,63.3,171c-16.5,75.4-94.5,111.1-97.8,112.6l-6,2.7L100.9,624z"/>
		<path d="M55.1,85.9c83.9,0,46.4,160.4,46.4,160.4c-1.7,43.1,37,101.7,37,101.7c161.3,183.9-31,269.9-31,269.9
			c-232.1-257.1-280-470.4-77.1-528.2C39.7,87.1,47.9,85.9,55.1,85.9 M55.1,67.9c-9.1,0-19.1,1.5-29.6,4.5
			c-35.9,10.2-65.5,25.4-88,45.2c-22.5,19.9-38.1,44.4-46.3,72.9c-15.4,53.6-4.7,119.8,31.8,197c35,74,92.6,155.6,171.1,242.5
			l8.8,9.7l12-5.3c3.5-1.6,85.5-39,102.9-118.9c12.1-55.2-9.8-115.2-64.9-178.4c-10.1-15.6-33.8-58.8-33.4-88.6
			c1.5-6.7,6.2-29.9,7.8-57.2c2.7-45.2-4.2-78.7-20.7-99.4C94.2,76.2,76.4,67.9,55.1,67.9L55.1,67.9z"/>
	</g>
	<g class="st1">
		<path class="st5" d="M160.8,606.7c-17.2,0-34.1-4.8-48.9-14c-28.7-17.6-48.7-42.8-59.7-74.9c-13.2-38.7-12.9-87.4,0.9-144.9
			c0.6-7,5.7-71.6-13.9-106.2c-3.6-4.2-21.4-25.3-37.5-52.4C-23,172.9-31.2,139-22.8,113.6C-15.5,91.5,3.7,77,34.4,70.3
			c20.1-4.4,39.4-6.6,57.4-6.6c53.6,0,96.6,19.3,127.7,57.3c30.7,37.5,49,92.4,54.5,163.2c5.3,69.1-1.6,152-20.7,246.5
			C244.5,574.8,205.6,606.7,160.8,606.7z"/>
		<path d="M91.8,73.3C250.6,73.3,299.9,251.5,244,529c-8.4,41.6-44.8,68.2-83.2,68.2c-14.8,0-30-4-43.9-12.6
			C70.5,556.1,33,496.9,62.5,374.5c0,0,7.4-74-15.5-113.4c0,0-135.4-154.5-10.6-181.5C56.2,75.4,74.6,73.3,91.8,73.3 M91.8,54.2
			L91.8,54.2L91.8,54.2c-18.6,0-38.6,2.3-59.4,6.8c-17,3.7-31,9.8-41.8,18.1c-10.8,8.4-18.4,19-22.5,31.6
			c-9.3,28.1-0.8,64.7,25.3,108.5c15.7,26.3,32.9,47.2,37.8,53c7.3,13.5,11.8,34.6,13,61.2c0.8,18.5-0.3,33.7-0.7,38
			c-14,58.9-14.2,109.2-0.5,149.5c11.7,34.2,33.1,61.2,63.7,80c16.4,10.1,35,15.4,54,15.4c23.3,0,46.3-8,64.7-22.6
			c19.1-15.2,32.3-36.8,37.2-60.9c19.2-95.4,26.2-179.2,20.8-249.1c-5.6-72.8-24.7-129.5-56.6-168.5c-16.3-19.9-35.9-35.1-58.4-45.3
			C145.8,59.4,120,54.2,91.8,54.2L91.8,54.2z"/>
	</g>
</g>
<g id="Layer_3">
</g>
<g id="TRIANGLE">
	<g>
		<g class="st36">
			<g>
				
					<image style="overflow:visible;" width="506" height="532" xlink:href="C2D540AE.png"  transform="matrix(0.48 0 0 0.48 -15.4073 -9.1182)">
				</image>
			</g>
			<g>
				
					<linearGradient id="SVGID_1_" gradientUnits="userSpaceOnUse" x1="293.8096" y1="-168.163" x2="293.8096" y2="-314.8218" gradientTransform="matrix(0.907 -0.421 0.421 0.907 -37.1479 468.614)">
					<stop  offset="4.873137e-02" style="stop-color:#042A00"/>
					<stop  offset="0.1673" style="stop-color:#082E00"/>
					<stop  offset="0.2974" style="stop-color:#153C02"/>
					<stop  offset="0.433" style="stop-color:#2B5204"/>
					<stop  offset="0.5724" style="stop-color:#497008"/>
					<stop  offset="0.7147" style="stop-color:#6F980C"/>
					<stop  offset="0.8574" style="stop-color:#9EC811"/>
					<stop  offset="1" style="stop-color:#D4FF17"/>
				</linearGradient>
				<path class="st2" d="M96.8,59.4l56.5-26.2c13.5-6.3,28.7,4.4,27.4,19.3l-5.5,62.1l-5.5,62.1c-1.3,14.8-18.2,22.7-30.4,14.1
					l-51-35.8l-51-35.8c-12.2-8.6-10.5-27.1,3-33.4L96.8,59.4z"/>
			</g>
		</g>
		<g>
			
				<image style="overflow:visible;opacity:0.27;" width="239" height="282" xlink:href="C2D540B2.png"  transform="matrix(0.48 0 0 0.48 70.3926 52.6818)">
			</image>
			<g>
				<g>
					
						<linearGradient id="SVGID_2_" gradientUnits="userSpaceOnUse" x1="102.2162" y1="67.2632" x2="173.1137" y2="216.8604" gradientTransform="matrix(1 -5.713618e-03 5.713618e-03 1 -1.7134 6.0382)">
						<stop  offset="3.631319e-02" style="stop-color:#EFFCD0"/>
						<stop  offset="0.9749" style="stop-color:#042A00"/>
					</linearGradient>
					<path class="st3" d="M89.3,111.7c-0.2-0.4-4.5-18.7,15.4-28.5c13.4-6.6,29.6-3.7,35.8,8.8c4.3,8.7,0.4,17.3-6.3,25.2
						c-2.4,2.8-1.2,5.4,0.2,8.3l2.5,5l-14.7,7.2l-4.8-9.7c-1.9-3.9-3.3-7.2-0.6-11.8c3.7-6.2,8.7-8.9,5.5-15.3
						c-2.1-4.3-6.8-5.7-10.8-3.7c-6.4,3.2-6.9,10-6,14.4L89.3,111.7z M147.2,144.3c2.8,5.6,0.5,12.4-5.2,15.2
						c-5.6,2.8-12.4,0.5-15.2-5.1c-2.8-5.7-0.5-12.5,5.1-15.3C137.6,136.3,144.4,138.6,147.2,144.3z"/>
				</g>
			</g>
		</g>
	</g>
</g>
</svg>
